<svg aria-hidden="true" style="position: absolute; width: 0; height: 0; overflow: hidden;" version="1.1" xmlns="http://www.w3.org/2000/svg" xmlns:xlink="http://www.w3.org/1999/xlink">
<defs>
<symbol id="icon-mobile" viewBox="0 0 32 32">
<path d="M19.727 2.667h-7.453c-1.487 0-2.025 0.155-2.568 0.445-0.539 0.29-0.97 0.721-1.252 1.244l-0.008 0.016c-0.291 0.543-0.445 1.081-0.445 2.568v18.12c0 1.485 0.155 2.025 0.445 2.568s0.717 0.969 1.26 1.26c0.543 0.291 1.081 0.445 2.568 0.445h7.453c1.485 0 2.025-0.155 2.568-0.445s0.969-0.717 1.26-1.26c0.291-0.543 0.445-1.081 0.445-2.568v-18.12c0-1.487-0.155-2.025-0.445-2.568-0.29-0.539-0.721-0.97-1.244-1.252l-0.016-0.008c-0.543-0.291-1.081-0.445-2.568-0.445zM10.667 23.993v-15.987h10.667v15.987h-10.667z"></path>
</symbol>
<symbol id="icon-down-arrow" viewBox="0 0 32 32">
<path d="M28.226 8l1.774 1.576-14 14.424-14-14.424 1.774-1.576 12.226 12.596z"></path>
</symbol>
<symbol id="icon-map-marker" viewBox="0 0 32 32">
<path d="M24.409 3.482c-2.322-2.321-5.365-3.482-8.409-3.482s-6.087 1.161-8.409 3.482c-3.701 3.701-4.665 9.348-2.256 13.68 2.765 4.97 10.665 14.838 10.665 14.838s7.901-9.868 10.666-14.838c2.409-4.332 1.445-9.979-2.257-13.68zM16 19.115c-3.988 0-7.223-3.234-7.223-7.222 0-3.991 3.234-7.226 7.223-7.226s7.224 3.234 7.224 7.226c0 3.987-3.234 7.222-7.224 7.222z"></path>
</symbol>
<symbol id="icon-phone" viewBox="0 0 32 32">
<path d="M0 10.375c0 0.938 0.344 1.969 0.781 3.063s1 2.125 1.438 2.906c1.188 2.063 2.719 4.094 4.469 5.781s3.813 3.094 6.125 3.938c1.344 0.531 2.688 1.125 4.188 1.125 0.75 0 1.813-0.281 2.781-0.688 0.938-0.406 1.781-1.031 2.094-1.781 0.125-0.281 0.281-0.656 0.375-1.094 0.094-0.406 0.156-0.813 0.156-1.094 0-0.156 0-0.313-0.031-0.344-0.094-0.188-0.313-0.344-0.563-0.5-0.563-0.281-0.656-0.375-1.5-0.875-0.875-0.5-1.781-1.063-2.563-1.469-0.375-0.219-0.625-0.313-0.719-0.313-0.5 0-1.125 0.688-1.656 1.438-0.563 0.75-1.188 1.438-1.625 1.438-0.219 0-0.438-0.094-0.688-0.25s-0.5-0.281-0.656-0.375c-2.75-1.563-4.594-3.406-6.156-6.125-0.188-0.313-0.625-0.969-0.625-1.313 0-0.406 0.563-0.875 1.125-1.375 0.531-0.469 1.094-1.031 1.094-1.719 0-0.094-0.063-0.375-0.188-0.781-0.281-0.813-0.656-1.75-0.969-2.656-0.156-0.438-0.281-0.75-0.313-0.906-0.063-0.094-0.094-0.219-0.125-0.375s-0.094-0.281-0.125-0.406c-0.094-0.281-0.25-0.5-0.406-0.625-0.156-0.063-0.531-0.156-0.906-0.188-0.375 0-0.813-0.031-1-0.031-0.094 0-0.219 0-0.344 0.031h-0.406c-1 0.438-1.719 1.313-2.25 2.344-0.5 1.031-0.813 2.188-0.813 3.219z"></path>
</symbol>
<symbol id="icon-whatsapp" viewBox="0 0 32 32">
<path d="M26.576 5.363c-2.69-2.69-6.406-4.354-10.511-4.354-8.209 0-14.865 6.655-14.865 14.865 0 2.732 0.737 5.291 2.022 7.491l-0.038-0.070-2.109 7.702 7.879-2.067c2.051 1.139 4.498 1.809 7.102 1.809h0.006c8.209-0.003 14.862-6.659 14.862-14.868 0-4.103-1.662-7.817-4.349-10.507v0zM16.062 28.228h-0.005c0 0-0.001 0-0.001 0-2.319 0-4.489-0.64-6.342-1.753l0.056 0.031-0.451-0.267-4.675 1.227 1.247-4.559-0.294-0.467c-1.185-1.862-1.889-4.131-1.889-6.565 0-6.822 5.531-12.353 12.353-12.353s12.353 5.531 12.353 12.353c0 6.822-5.53 12.353-12.353 12.353v0zM22.838 18.977c-0.371-0.186-2.197-1.083-2.537-1.208-0.341-0.124-0.589-0.185-0.837 0.187-0.246 0.371-0.958 1.207-1.175 1.455-0.216 0.249-0.434 0.279-0.805 0.094-1.15-0.466-2.138-1.087-2.997-1.852l0.010 0.009c-0.799-0.74-1.484-1.587-2.037-2.521l-0.028-0.052c-0.216-0.371-0.023-0.572 0.162-0.757 0.167-0.166 0.372-0.434 0.557-0.65 0.146-0.179 0.271-0.384 0.366-0.604l0.006-0.017c0.043-0.087 0.068-0.188 0.068-0.296 0-0.131-0.037-0.253-0.101-0.357l0.002 0.003c-0.094-0.186-0.836-2.014-1.145-2.758-0.302-0.724-0.609-0.625-0.836-0.637-0.216-0.010-0.464-0.012-0.712-0.012-0.395 0.010-0.746 0.188-0.988 0.463l-0.001 0.002c-0.802 0.761-1.3 1.834-1.3 3.023 0 0.026 0 0.053 0.001 0.079v-0.004c0.131 1.467 0.681 2.784 1.527 3.857l-0.012-0.015c1.604 2.379 3.742 4.282 6.251 5.564l0.094 0.043c0.548 0.248 1.25 0.513 1.968 0.74l0.149 0.041c0.442 0.14 0.951 0.221 1.479 0.221 0.303 0 0.601-0.027 0.889-0.078l-0.031 0.004c1.069-0.223 1.956-0.868 2.497-1.749l0.009-0.017c0.165-0.366 0.261-0.793 0.261-1.242 0-0.185-0.016-0.366-0.047-0.542l0.003 0.019c-0.092-0.155-0.34-0.247-0.712-0.434z"></path>
</symbol>
<symbol id="icon-email" viewBox="0 0 32 32">
<path d="M0 28.237h32v-24.471h-32v24.471zM1.882 6.278v-0.629h28.235v0.629l-14.118 12.243-14.118-12.243zM30.118 8.77v15.842l-5.852-7.315-1.472 1.175 6.306 7.883h-26.199l6.306-7.883-1.472-1.175-5.852 7.315v-15.842l14.118 12.243 14.118-12.243z"></path>
</symbol>
<symbol id="icon-phone" viewBox="0 0 32 32">
<path d="M0 10.375c0 0.938 0.344 1.969 0.781 3.063s1 2.125 1.438 2.906c1.188 2.063 2.719 4.094 4.469 5.781s3.813 3.094 6.125 3.938c1.344 0.531 2.688 1.125 4.188 1.125 0.75 0 1.813-0.281 2.781-0.688 0.938-0.406 1.781-1.031 2.094-1.781 0.125-0.281 0.281-0.656 0.375-1.094 0.094-0.406 0.156-0.813 0.156-1.094 0-0.156 0-0.313-0.031-0.344-0.094-0.188-0.313-0.344-0.563-0.5-0.563-0.281-0.656-0.375-1.5-0.875-0.875-0.5-1.781-1.063-2.563-1.469-0.375-0.219-0.625-0.313-0.719-0.313-0.5 0-1.125 0.688-1.656 1.438-0.563 0.75-1.188 1.438-1.625 1.438-0.219 0-0.438-0.094-0.688-0.25s-0.5-0.281-0.656-0.375c-2.75-1.563-4.594-3.406-6.156-6.125-0.188-0.313-0.625-0.969-0.625-1.313 0-0.406 0.563-0.875 1.125-1.375 0.531-0.469 1.094-1.031 1.094-1.719 0-0.094-0.063-0.375-0.188-0.781-0.281-0.813-0.656-1.75-0.969-2.656-0.156-0.438-0.281-0.75-0.313-0.906-0.063-0.094-0.094-0.219-0.125-0.375s-0.094-0.281-0.125-0.406c-0.094-0.281-0.25-0.5-0.406-0.625-0.156-0.063-0.531-0.156-0.906-0.188-0.375 0-0.813-0.031-1-0.031-0.094 0-0.219 0-0.344 0.031h-0.406c-1 0.438-1.719 1.313-2.25 2.344-0.5 1.031-0.813 2.188-0.813 3.219z"></path>
</symbol>
<symbol id="icon-phone-office" viewBox="0 0 32 32">
<path d="M26 32h-21c-1.105 0-2-0.896-2-2v-24c0-1.105 0.895-2 2-2v24c0 1.104 0.896 2 2 2h4c1.105 0 2-0.896 2-2v-24h13c1.105 0 2 0.896 2 2v24c0 1.104-0.895 2-2 2zM21 29h2v-2h-2v2zM21 26h2v-2h-2v2zM21 23h2v-2h-2v2zM21 20h2v-2h-2v2zM18 29h2v-2h-2v2zM18 26h2v-2h-2v2zM18 23h2v-2h-2v2zM18 20h2v-2h-2v2zM26 7c0-0.553-0.447-1-1-1h-9c-0.552 0-1 0.447-1 1v4c0 0.552 0.448 1 1 1h9c0.553 0 1-0.448 1-1v-4zM26 18h-2v2h2v-2zM26 21h-2v2h2v-2zM26 24h-2v2h2v-2zM26 27h-2v2h2v-2zM11 29h-4c-0.552 0-1-0.447-1-1v-25c0-0.553 0.448-1 1-1h1.938v-2h1.062v2h1c0.552 0 1 0.447 1 1v25c0 0.553-0.448 1-1 1z"></path>
</symbol>
<symbol id="icon-right-arrow" viewBox="0 0 32 32">
<path d="M16.11 29.113c7.243 0 13.113-5.871 13.113-13.113s-5.87-13.113-13.113-13.113c-7.242 0-13.113 5.871-13.113 13.113s5.871 13.113 13.113 13.113zM16.11 3.936c6.652 0 12.064 5.412 12.064 12.064s-5.412 12.064-12.064 12.064c-6.653 0-12.064-5.412-12.064-12.064s5.411-12.064 12.064-12.064z"></path>
<path d="M16.906 21.637l0.742 0.742 6.378-6.379-6.378-6.379-0.742 0.742 5.112 5.112h-12.727v1.049h12.727z"></path>
</symbol>
</defs>
</svg>
