<svg width="117" height="106" viewBox="0 0 117 106" fill="none" xmlns="http://www.w3.org/2000/svg">
<g clip-path="url(#clip0_152_292)">
<g filter="url(#filter0_d_152_292)">
<path fill-rule="evenodd" clip-rule="evenodd" d="M103.328 39L102.513 41.6296H98.5838C98.8433 42 101.252 43.7778 101.697 44C101.66 45 100.622 47.3333 100.548 48.037C100.956 47.9259 101.549 47.4074 101.92 47.1481C102.401 46.8148 102.772 46.4815 103.254 46.1852C103.402 45.9259 103.55 45.8148 103.884 45.6667C104.143 45.8148 105.292 46.6296 105.403 46.8889C105.885 47.1111 106.219 47.4815 106.701 47.8148C107.034 48.0741 106.738 48 107.22 48.037V47.8148C106.886 47.4815 106.034 44.7037 105.959 44.0741C106.367 43.7037 107.479 42.8519 107.924 42.6296C108.257 42.3333 108.924 41.9259 109.184 41.5926H106.589H105.107L104.922 40.6667C104.922 40.6296 104.885 40.5926 104.885 40.5926C104.885 40.5926 104.848 40.5556 104.848 40.5185C104.848 40.4815 104.81 40.4074 104.773 40.3704L103.995 37.8148C103.921 37.6667 103.958 37.7407 103.884 37.6296L103.328 39ZM31.3142 21.8148L31.8701 21.2963C32.3149 21.5185 33.3156 22.2222 33.4638 22.5556C33.7974 22.7407 33.9827 22.8519 34.2792 23.0741C34.6128 23.3333 34.724 23.4815 35.1317 23.6667C35.2799 23.5556 35.1687 23.7037 35.2058 23.4444L33.9827 19.7407C34.2421 19.4444 35.6876 18.3704 36.0582 18.2963C36.3547 17.9259 36.9107 17.7037 37.2072 17.2593H34.6128L33.1673 17.2222L33.0191 16.4074L32.2778 14C32.1666 13.5185 32.2407 13.4074 31.833 13.2963C31.6848 13.963 31.4995 14.5926 31.2771 15.2222C31.0918 15.7778 30.7582 16.6296 30.6841 17.2222H26.6071C26.8666 17.5926 27.7561 18.1111 28.1638 18.4444C28.6827 18.8519 29.2757 19.3333 29.7946 19.7037L28.5344 23.6296C29.0904 23.6296 30.7953 22.1111 31.3142 21.8148ZM89.9481 24L89.318 23.963H87.6502C87.7614 24.2963 87.6502 24.037 87.9096 24.2963L90.7635 26.3333C90.7264 27.2593 89.6887 29.6296 89.6145 30.3704C90.1705 30.3333 91.5789 28.963 92.209 28.5926L92.3202 28.4815C92.4684 28.2963 92.6167 28.1111 92.9502 28C93.3209 28.2222 94.2474 28.8889 94.4698 29.2222C94.9887 29.5185 95.2852 29.8518 95.767 30.1852C96.323 30.5556 96.2489 30.2963 96.2489 30.2593C95.9894 29.8148 95.0628 26.963 95.0258 26.4074C95.2852 26.1481 96.6936 25.0741 96.9901 24.963C96.9901 24.963 97.0272 24.8889 97.0642 24.9259L98.2503 23.9259H95.6558H94.1733L93.988 23C93.988 22.963 93.9509 22.9259 93.9509 22.9259C93.9509 22.9259 93.9139 22.8889 93.9139 22.8519L93.0614 19.963C92.6537 20.0741 92.7279 20.3333 92.5796 20.8148L91.9495 22.8889C91.8383 23.2222 91.7642 23.6296 91.616 23.8889L89.9481 24ZM74.7893 17.037C74.9375 16.7037 75.0487 16.6667 75.4193 16.4815C75.827 16.7037 76.6795 17.3333 76.9389 17.6667L77.7914 18.2963C78.0508 18.4815 78.3473 18.7407 78.6068 18.9259C78.755 18.8148 78.6438 18.9259 78.6809 18.7037C78.3844 18.0741 77.5319 15.5926 77.4578 14.8519C78.0879 14.5185 78.8662 13.6667 79.5334 13.4444C79.5334 13.4444 79.5704 13.3704 79.6075 13.4074L79.8299 13.2222C79.9781 13.1111 79.9781 13.1111 80.1264 13C80.4599 12.7407 80.6082 12.8148 80.7194 12.4444L78.125 12.4815H76.6424L76.4571 11.6296L75.6788 9.2963C75.5676 8.85185 75.6417 8.77778 75.3082 8.51852L74.1592 12.3704H70.1193C70.1934 12.7037 70.1193 12.5185 70.3788 12.7407L71.6389 13.6667C71.9354 13.8889 72.1948 14.037 72.4914 14.2593C72.7508 14.4815 73.0102 14.7778 73.3438 14.8519C73.1956 15.4815 72.9361 16.1852 72.7137 16.8148L72.1207 18.8889C72.4913 18.7778 72.4543 18.6667 72.7879 18.4444L74.7893 17.037ZM16.8595 37.1481C17.0448 36.8148 17.119 36.8148 17.4896 36.5926C17.8602 36.7778 18.7868 37.4815 19.0092 37.7778C19.5651 38.0741 20.1581 38.6667 20.7141 39.037C20.8623 38.9259 20.7511 39.037 20.7882 38.8148C20.4917 38.1852 19.6763 35.7407 19.5651 34.963C20.2693 34.6667 21.0106 33.7037 21.7519 33.5185C22.0854 33.037 22.6414 32.8889 22.7896 32.4815L20.1952 32.5185L18.7497 32.4815L18.5644 31.6296C18.305 30.5926 17.8602 29.5926 17.6378 28.5185H17.4155C17.3413 29.4444 16.3406 31.8148 16.2665 32.4444H12.1896C12.3378 32.8148 12.4119 32.7037 12.8938 33.1111C13.2273 33.3704 13.4126 33.4815 13.7462 33.7407C14.3392 34.1852 14.784 34.5926 15.4511 34.963C15.3029 35.6296 15.0434 36.2963 14.8581 36.963C14.6728 37.5926 14.2651 38.3704 14.228 39C14.6728 38.8889 16.4889 37.2593 16.8595 37.1481ZM11.1518 67.6296L11.7819 67.0741C12.1525 67.2222 13.1532 67.963 13.3756 68.2963L14.6728 69.2222C14.9693 69.4444 14.784 69.4444 15.1917 69.5556V69.3333L15.0805 69.2222C14.8581 68.5556 13.9686 66.0741 13.9315 65.4815C14.3022 65.1481 15.5623 64.1481 16.0071 64.037C16.3036 63.5926 16.8225 63.5185 17.156 63H14.5616L13.0791 63.037L12.8938 62.0741C12.8938 62.037 12.8567 62 12.8567 62L12.7455 61.7778C12.7084 61.6667 12.6343 61.4815 12.5972 61.4074L11.9301 59.0741C11.5224 59.1852 11.5224 59.8889 11.1518 60.963L10.4846 63H6.59301C6.74126 63.5185 9.29862 64.963 9.70632 65.5926C9.55807 66.1852 9.33569 66.9259 9.15037 67.5185C8.96505 68.037 8.59442 69 8.55736 69.5185C8.92799 69.3333 8.85387 69.3333 9.15037 69.0741L11.1518 67.6296ZM98.7691 36.9259C98.9915 36.7037 99.1027 36.5556 99.5104 36.4444C99.9552 36.7037 100.696 37.2222 100.993 37.5926C101.252 37.7778 102.475 38.7778 102.735 38.8518C102.809 38.7037 102.883 38.963 102.735 38.6296C102.438 37.8518 101.623 35.5556 101.549 34.7778C102.253 34.4444 102.883 33.6667 103.661 33.3704C104.069 33 104.551 32.7037 104.81 32.3333L102.105 32.3704H100.696L100.548 31.4815C100.326 31.1481 99.6216 28.7037 99.6216 28.4815H99.3251C99.288 29.0741 98.9545 29.9259 98.8062 30.4444L98.2132 32.3333H94.1733C94.6181 33 96.9901 34.4074 97.3978 34.9259C97.1754 35.8519 96.2489 38.3704 96.2489 38.8518L98.7691 36.9259ZM104.996 56.7778C104.996 56.6296 104.959 56.6667 105.107 56.6667L105.589 56.1481C105.885 56.2593 106.997 57.0741 107.183 57.3704C107.479 57.4815 108.554 58.3704 108.887 58.6296V58.3333L107.701 54.6296C108.22 54.2593 109.295 53.2963 109.851 53.1481C110.222 52.5926 110.629 52.6667 111 52.1111H108.406H106.923L106.738 51.2963L106.664 51.1481C106.441 50.5185 105.996 48.4815 105.589 48.1852C105.441 48.8148 105.181 49.5185 104.959 50.1481C104.773 50.7037 104.588 51.6296 104.366 52.1481H100.437C100.511 52.4444 101.623 53.2222 101.957 53.4444C102.253 53.6667 102.475 53.7778 102.735 54C102.994 54.2222 103.254 54.4444 103.55 54.6296C103.476 55.6667 102.438 57.6667 102.401 58.6667L104.996 56.7778ZM10.6329 56.8148C10.8553 56.5926 11.0406 56.4444 11.4112 56.3333C11.7819 56.7778 12.6343 57.1111 12.8567 57.5926C13.0791 57.6667 13.4868 57.963 13.6721 58.1111C13.9686 58.3333 14.191 58.5185 14.4875 58.7407C14.6357 58.6296 14.5245 58.7407 14.5616 58.5185L13.3385 54.8148C13.635 54.5185 14.0056 54.2963 14.3392 54.037C14.6728 53.7778 14.9693 53.4815 15.414 53.3333C15.7106 52.963 16.4148 52.6296 16.6742 52.2963C16.0071 52 14.6728 52.5555 14.0056 52.1852L12.5602 52.2593L12.4119 51.3333C12.2637 51.037 11.7448 49.5185 11.7077 49.1481L11.3742 48.3333C11.0777 48.5555 10.1511 51.7407 10.0399 52.2593C9.2245 52.2593 6.33357 52.1111 6 52.2593C6.22238 52.5926 7.8161 53.6667 8.33498 54.0741C8.63149 54.2963 8.85387 54.5556 9.2245 54.6296C9.2245 55.4444 8.18673 57.5185 8.07554 58.6667C8.37204 58.6667 10.2252 57.2222 10.6329 56.8148ZM104.885 59.1481C104.885 59.6296 104.551 60.4444 104.403 60.963C104.217 61.6296 103.995 62.1111 103.847 62.7778H100.956L99.9552 62.8148C100.252 63.3333 100.548 63.2593 100.845 63.7037L103.031 65.3704L101.771 69.2963C102.253 69.1852 103.736 67.9259 104.477 67.4444L105.07 66.8518C105.403 67 105.663 67.2593 105.922 67.4444C106.219 67.6667 106.478 67.8519 106.664 68.0741C107.22 68.4815 107.776 68.963 108.294 69.3333L108.406 69.1111C108.109 68.3704 107.294 66.0741 107.183 65.2963C107.738 64.9259 108.739 64 109.332 63.8148C109.48 63.5926 109.629 63.4815 109.888 63.3333C110.148 63.1481 110.296 63.1111 110.37 62.7778H107.738L106.367 62.8148L106.219 61.9259C105.996 61.5926 105.848 60.963 105.7 60.5185C105.515 59.963 105.403 59.4074 105.218 58.8889L105.033 59.037L104.885 59.1481ZM12.5231 46.4074L13.1161 45.8518C13.5238 46.0741 14.4133 46.7407 14.6728 47.037C14.9322 47.1852 15.2287 47.4815 15.5252 47.6667C15.8217 47.8889 16.0812 48.0741 16.3777 48.2593C16.5259 48.1481 16.4148 48.2593 16.4518 48.037C16.1924 47.4444 15.3029 44.8518 15.2658 44.2222C15.8959 43.8148 16.563 43.1481 17.2301 42.8519C17.6008 42.3704 18.342 42.2963 18.4903 41.7037H15.8588C15.5623 41.8518 14.8952 41.7778 14.4504 41.7778L14.2651 41L13.5238 38.5926C13.4126 38.1111 13.4868 38 13.0791 37.8889C12.9308 38.4815 12.7084 39.2222 12.5231 39.8148C12.3378 40.2963 11.9672 41.2593 11.9301 41.7037C11.0035 41.7037 8.48323 41.5185 7.89022 41.8148L10.2993 43.6667C10.67 43.9259 10.7812 44.1111 11.1147 44.2963L9.81751 48.2593C10.1881 48.1852 10.8923 47.5926 11.1888 47.3333C11.6336 46.963 12.0042 46.7037 12.5231 46.4074ZM84.4628 21.5926C84.6481 21.3333 84.7222 21.2222 85.0558 21.0741C85.3523 21.2222 85.5747 21.4074 85.8712 21.6296C86.2047 21.8518 86.5012 22 86.6495 22.3333C86.946 22.4074 87.2054 22.7037 87.4649 22.8519C87.7984 23.1111 87.9096 23.2593 88.3173 23.4444C88.4656 23.3333 88.3544 23.4815 88.3915 23.2222C88.0949 22.5926 87.3537 20.2593 87.2054 19.4815C87.5019 19.1852 88.8362 18.1481 89.281 18C89.4663 17.7778 89.6516 17.6667 89.874 17.4815C90.1334 17.2963 90.3187 17.2222 90.4299 16.8889H87.7985C87.5019 17.037 86.8348 17 86.39 16.963L86.2047 16.1852C85.9824 15.6667 85.8712 15.2222 85.6859 14.5926C85.3893 13.5556 85.4635 13.1852 85.0187 13.0741C84.8705 13.6667 84.6481 14.4074 84.4628 15C84.3145 15.4815 83.9068 16.4444 83.8698 16.8889H79.8299C79.904 17.1852 79.9781 17.1481 80.1634 17.2963L83.0544 19.4815L81.7942 23.4074C82.239 23.3704 82.2019 23.2222 82.5355 23L84.4628 21.5926ZM38.5044 18.2963L38.282 18.9259C38.3932 19.1481 38.3932 19.0741 38.9121 18.6667C39.1345 18.4815 39.3198 18.3704 39.5792 18.1852C40.0611 17.8148 40.4317 17.4074 40.9876 17.1852C41.173 16.9259 41.2471 16.8148 41.5807 16.6667C41.9142 16.8148 42.9891 17.5926 43.1373 17.9259C43.4338 18 43.7303 18.2963 44.0268 18.5185C44.3233 18.7407 44.5457 19 44.9163 19.0741V18.8148C44.694 18.5556 43.7303 15.5185 43.6933 15C44.3975 14.6296 45.0275 13.8519 45.7688 13.5926C45.9912 13.3704 46.1024 13.2593 46.3618 13.1111C46.6213 12.9259 46.8066 12.8519 46.9178 12.5185H44.2863C43.9898 12.6667 43.3226 12.5926 42.9149 12.5926L42.6926 11.7037L41.766 8.59259C41.3953 8.85185 40.5058 12.0741 40.4317 12.5185H36.2806C36.3548 12.8148 36.3918 12.7778 36.6142 12.9259L37.8373 13.8148C38.3932 14.2222 38.9121 14.6667 39.5051 15.0741L38.5044 18.2963ZM23.4197 28.7037C23.7533 28.4815 23.6791 28.4444 24.0498 28.2222C24.4204 28.3704 25.347 29.0741 25.6064 29.3704L27.2743 30.6296C27.4225 30.5185 27.3113 30.6296 27.3484 30.4074C27.0148 29.6667 26.3106 27.4815 26.1624 26.6667C26.4218 26.3704 27.719 25.3333 28.2008 25.1852C28.5715 24.7407 29.2016 24.6667 29.3498 24.0741H26.7554C26.4589 24.2222 25.7547 24.1852 25.347 24.1111L25.1617 23.3333C24.5316 22.1481 24.5687 20.4074 23.9386 20.2222C23.9015 20.7407 23.5679 21.7037 23.4197 22.1852C23.2344 22.7407 22.9379 23.4815 22.8267 24.0741C21.9001 24.0741 19.3798 23.8889 18.7868 24.1852L21.1218 26C21.6407 26.3704 21.6407 26.4815 22.0113 26.5926L20.7511 30.6296C21.1588 30.5926 21.6777 30.1111 22.1595 29.7407L23.4197 28.7037ZM63.8556 14.5556C64.1151 14.2222 64.0409 14.2593 64.4116 14.037C64.7451 14.1852 64.8934 14.3704 65.1899 14.5926C65.4864 14.8148 65.82 14.963 65.9682 15.2963C66.5983 15.6296 67.006 16.1111 67.6361 16.4444C67.7843 16.3333 67.6731 16.4815 67.7102 16.2222L66.4871 12.5185C66.8207 12.2222 68.192 11.1852 68.5627 11.037C68.7109 10.8148 68.8221 10.7778 69.0445 10.6296C69.341 10.4444 69.378 10.3333 69.6745 10.2222V9.92593H67.0801C66.7836 10.1111 66.1165 10.037 65.6717 10.037L65.4864 9.22222C65.3011 8.66667 64.5228 6.59259 64.4857 6.11111H64.2633C64.2263 6.59259 63.2997 9.14815 63.1144 9.96296C62.336 9.96296 61.5207 9.96296 60.7423 9.96296C59.1486 9.96296 58.1108 9.62963 60.8535 11.4815C61.3724 11.8148 61.8172 12.2222 62.299 12.5556L61.0759 16.4074C61.4836 16.2963 62.5955 15.4074 63.1144 15.037C63.4109 14.8519 63.5591 14.6667 63.8556 14.5556ZM52.2549 14.6296L52.366 14.5185C52.5143 14.2963 52.6996 14.1481 52.9961 14C53.3668 14.2222 54.1821 14.8148 54.4416 15.1111L56.0353 16.2963C56.5171 16.4074 56.1465 16.3704 56.2947 16.2593L56.1836 16.1481L54.9975 12.4074C55.4052 12.0741 56.5912 11.1111 57.036 10.9259C57.2954 10.7037 57.4437 10.5926 57.7402 10.4074C57.9255 10.2593 58.4444 10.037 58.1479 9.85185C57.8885 9.7037 56.0724 9.81481 55.6647 9.81481C55.3682 10.037 54.664 9.92593 54.2563 9.92593L54.071 9L53.3668 6.81481C53.2556 6.51852 53.1814 6.37037 53.1444 6C52.6626 6.11111 52.7737 6.7037 52.366 7.81481C52.1437 8.44444 51.9213 9.2963 51.6618 9.81481H47.7331V10.1111C47.9926 10.1852 48.252 10.4074 48.5115 10.5926L50.0681 11.7407C50.4388 12 50.4758 12.1852 50.8465 12.2963C50.8465 12.7407 50.7353 12.8889 50.587 13.2963L49.6975 16.3333C50.3276 16.2222 51.2912 15.1481 52.2549 14.6296ZM46.5101 19.5185C46.3247 19.7778 46.3989 19.7037 46.0282 19.7037L42.4702 21.1481C42.0625 21.3704 41.7289 21.5556 41.2842 21.7407C39.8758 22.3333 37.4666 23.963 36.8366 24.1852C36.6513 24.4815 36.9107 24.2963 36.4659 24.4444C36.2436 24.7037 35.7988 24.963 35.5023 25.1852L32.0925 27.8889C31.1659 28.7037 29.7575 30.3333 28.9421 31.037C28.8309 31.3333 28.9051 31.1852 28.6827 31.3333L26.2736 34.3333C26.0512 34.6296 25.94 34.8518 25.7176 35.1481L24.1239 37.5926C22.9379 39.5185 21.3812 42.7778 20.6029 44.963C20.1581 46.2963 19.6393 47.7407 19.3427 49.1111C18.305 54 17.9343 56.4815 18.0826 61.4444L18.305 64.037L18.342 64.5556C18.2679 65.8518 19.2316 69.2963 19.2316 69.963L20.7882 70C21.4553 69.8889 24.3092 69.8889 25.0505 70H46.2136H71.9725H86.2047L86.5012 69.963L96.2489 70L96.5454 69.963H97.9908C97.9908 69.4444 98.2132 68.9259 98.3244 68.4074C98.658 66.7037 98.8433 64.2963 99.0286 63.4074L99.1027 60.2963L99.0657 58L99.1027 57.4815C98.9915 57.037 98.9174 56 98.9174 55.5185C98.8803 54.8148 98.7321 54.037 98.695 53.4074L97.6943 48.7407C96.2859 43.3333 93.5803 37.7407 90.2076 33.4815C88.3173 31.0741 86.9831 29.6296 84.7222 27.6296L81.6089 25.1111C81.3495 24.6667 76.976 22.1852 76.4942 21.963L70.6011 19.5556C69.8228 19.3333 69.1927 19.1111 68.4515 18.9259C66.5983 18.4815 63.1514 17.7778 61.2983 17.7778C60.7053 17.7778 60.6311 17.6667 60.0752 17.6667H57.2584C55.0717 17.6667 50.8465 18.4074 48.6597 18.9259C48.1408 19.0741 47.1031 19.5185 46.5101 19.5185ZM69.378 20.6667C69.8969 20.6667 70.0081 20.7407 70.1934 21.0741C69.934 21.0741 69.7857 21.0741 69.6375 21C69.2669 20.8148 69.5263 20.8889 69.378 20.6667ZM58.815 23.7778C58.815 24.1481 58.7409 25.1481 58.5556 25.2593C58.4815 25.2963 56.6283 25.0741 54.4786 26.4815C53.515 27.1111 52.1437 28 51.6989 29.1111C51.4024 29.8518 51.6618 29.963 51.9584 30.4074C52.6626 30.4074 52.922 30.2222 53.515 30.1852L54.8122 29.6667C56.2577 29.1852 55.5164 27.5556 58.185 28.8889C57.9626 29.1852 57.629 29.2593 57.2954 29.6667C57.036 30 56.9248 30.3333 56.7766 30.7037C56.5171 31.1852 56.5171 31.1111 55.4794 31.2593C54.5528 31.4074 54.2192 31.5926 53.9227 31.3333C53.7003 30.963 53.8115 31.0741 53.4409 30.8519C52.2178 30.8889 53.5521 31.7407 51.143 31.7407C47.5108 31.7037 46.2506 31.8148 42.4331 30.8148L42.1366 30.7037C41.4695 30.6667 41.0618 30.3333 40.4688 30.2963C40.5058 29.8519 40.9876 29.2222 41.21 28.8519L41.2842 28.5185C43.3597 28.8148 42.1737 29.5926 44.138 28.2593C44.6198 27.9259 44.8052 27.6296 45.5464 27.5926C48.1408 27.4444 47.1772 27.8889 48.0297 27C49.3639 25.6667 51.18 25.5926 51.9584 25.3333C52.4772 25.1481 53.0332 24.9259 53.515 24.7037C55.7388 23.6667 58.3703 21.6667 59.1115 21.3704L58.815 23.7778ZM67.6361 25.2222C67.4137 25.3333 67.0801 25.2222 66.7836 25.1481C66.413 25.037 66.3759 25 66.2277 24.7037C65.5235 23.963 66.1536 23.6296 65.857 23.037C65.5605 22.7407 63.2256 23.1852 65.3011 25.2593C65.5976 25.5556 65.9312 25.7037 66.1535 26.0741C65.3382 26.1481 64.1892 26.7778 63.5221 27.0741C63.1885 27.2222 62.892 27.2963 62.6325 27.4444L60.6682 26.1852L60.4829 25.963C60.1864 25.8889 60.0752 25.7407 59.7787 25.6296C59.4451 25.4815 59.2598 25.4444 58.9262 25.3704C58.9262 24.8148 59.1486 24.037 59.1115 23.5185L59.408 21.3333C59.4451 21.3333 59.4822 21.2963 59.4822 21.2963C59.5192 21.2963 59.5563 21.2593 59.5563 21.2593C59.5934 21.2593 59.5934 21.2222 59.6304 21.2222C60.9276 20.7037 62.0395 20.2963 63.2626 19.1852C63.9668 19.6667 63.7444 19.7037 64.9675 20.037C65.6717 20.2222 66.413 20.3333 67.1543 20.4815V21.2593C68.7109 21.5556 69.8969 22.8148 68.9704 23C68.5997 23.0741 68.2662 22.8889 68.2662 23.2963C68.2291 24.037 69.6745 23.5926 69.3039 25.1852C68.785 25.3704 68.192 25.3704 67.6361 25.2222ZM39.4681 27.9259L39.5051 27.963L40.024 28.3333C40.2834 28.4444 40.4688 28.5556 40.7653 28.6296C40.6541 29.0741 40.2834 29.7407 40.024 30.0741C39.6904 30 37.9114 29.2963 37.7261 29.1481C37.3925 29.0741 36.0953 28.4815 35.8729 28.2222C36.1694 27.963 36.4289 27.7778 36.7254 27.5185C36.9848 27.2963 37.3184 27.0741 37.5037 26.8519L39.2457 27.7037C39.431 27.8889 39.3569 27.8148 39.4681 27.9259ZM30.3505 44.7778C29.7946 44.5185 29.2386 44.0741 28.7568 43.7407C28.312 43.4444 27.7561 42.8889 27.3484 42.6667L27.2372 42.5555L27.126 42.4815C26.7924 42.3333 26.9407 42.4444 26.8295 42.1481L26.7183 42.037C26.4218 41.963 26.3477 41.8148 26.0512 41.5926C25.7547 41.3704 25.6064 41.3333 25.6435 40.9259L25.7917 40.6296C25.94 39.9259 27.089 38 27.4596 37.2963C27.9043 36.2222 29.461 33.8889 30.2393 32.8148C30.61 32.3333 33.6121 30 34.2421 29.5556C35.0575 28.963 35.354 28.4074 35.8729 28.6667C36.9478 29.1852 38.6156 30.1481 39.8387 30.4815C39.8016 30.8889 39.8387 30.5926 39.6904 30.7037L37.8373 34.3333C37.5408 34.963 37.2443 35.4815 36.9478 36.1481C36.6513 36.8519 36.3177 37.3333 36.0582 38.037C35.7988 38.6667 35.5394 39.2963 35.2429 39.9259C34.9463 40.5556 34.761 41.2593 34.4645 41.963L33.0561 46.1481C32.2407 46 31.0918 44.963 30.3505 44.7778ZM40.6541 30.7407C40.7653 30.6296 41.0618 30.8889 40.7653 30.7778C40.7653 30.7778 40.4688 30.8889 40.6541 30.7407ZM40.9506 30.8148C41.0618 30.7037 41.3583 30.963 41.0618 30.8519C41.0618 30.8889 40.7653 31 40.9506 30.8148ZM41.2471 30.9259C41.5436 30.963 41.3583 30.9259 41.5807 31C41.9513 31.1111 41.7289 31.037 41.8401 31.1481C41.4324 31.1481 41.5436 31.1481 41.2471 30.9259ZM42.0995 31.2593C42.8408 31.2593 46.473 32.1852 50.1052 32.1852C50.9206 32.1852 51.2912 32.0741 52.0695 32.0741C51.9954 32.4444 51.8472 32.6296 51.6618 32.8889L47.8073 32.5926C45.9171 32.3333 44.9905 32.1111 43.1744 31.6296C43.0261 31.5926 42.7667 31.5185 42.6184 31.4444L42.1737 31.2593C42.1366 31.2593 42.0995 31.2593 42.0995 31.2593ZM34.9093 46.8148C34.6128 46.7778 33.4638 46.4074 33.4638 46.1852C33.4638 45.037 36.3918 37.9259 37.2072 36.3333L40.024 30.8519C40.5058 31.0741 41.0988 31.2222 41.5807 31.4815L37.9485 38.8518C37.689 39.5185 37.3925 40.0741 37.1331 40.7407L35.6505 44.7407C35.4652 45.2963 35.1687 46.2963 34.9093 46.8148ZM56.3318 32.4815C55.887 33.4074 53.9968 33.2963 54.1451 32.7037V31.8889C54.8863 31.7037 55.7759 31.6667 56.5171 31.4815C56.443 31.7778 56.4059 32.1481 56.3318 32.4815ZM40.3205 42.8148L42.7667 43.2963C42.8779 42.5926 43.5821 41.9259 44.138 41.3704C44.9534 41.4444 45.4723 41.7037 46.2877 41.3333C47.9185 40.6667 47.5478 38.6296 48.6597 39.3333C48.9562 39.5185 49.401 40.2963 49.4381 40.8518C49.6975 41.037 49.8828 41.0741 50.1423 41.2593C50.1423 43.1111 49.4751 42.5556 49.0304 43.7037C48.808 44.2222 48.9192 44.5926 49.3639 44.8519C49.6975 45.0741 50.2534 45.2222 50.7723 45.1852C53.8115 45.1481 52.8108 41.9259 53.8486 41.6296C54.2933 42.6667 54.1821 44.1111 54.2933 44.3333C54.4786 44.7037 54.4786 44.4074 54.8122 44.7037C55.3682 44.7037 55.4423 44.7778 55.887 44.8148C55.887 44.2593 55.887 44.6667 55.9982 44.5185C56.0353 43.5556 56.5912 42.2593 57.2954 41.963V45.7407L57.2584 47.5185C56.1465 47.5185 55.0346 47.5185 53.9227 47.5185C53.2185 47.5185 52.9591 47.5926 52.366 47.6296C51.773 47.6667 51.4024 47.7037 51.0318 48C50.4017 47.7778 48.1779 46.1852 47.9555 45.4815C47.8443 45.0741 47.8814 45.1111 48.1038 45C47.9185 44.5926 45.9171 43.8889 45.2129 43.2593L44.3975 42.9259C43.7674 43.1852 43.7303 43.7778 43.0632 44.037C42.5443 44.5926 42.2849 44.1481 40.8394 44.3704C39.6904 44.5556 38.5785 44.6667 37.689 45.2593C36.7624 45.8889 38.0967 45.4444 36.1324 46.4074C35.7617 46.5926 35.5764 46.7407 35.2799 46.8889C35.4282 46.2222 35.7247 45.5185 35.9471 44.8519C36.2065 44.1111 36.3918 43.4815 36.6513 42.7778C37.2813 41.2593 38.3932 38.4444 39.0974 37.037L41.9142 31.5556C43.2114 31.8519 43.6562 32.1481 45.6205 32.5185C46.6583 32.7407 48.845 33.1111 49.8087 33.1111V33.2222C48.7709 33.2222 47.8073 33.8889 47.622 34.6667C46.3618 34.6667 45.2128 34.2593 43.4709 35.1852C43.5079 35.6296 43.8415 36.4815 43.7674 36.9259C43.6933 37.5556 43.3968 37.4074 43.1744 37.2222C41.8772 36.2222 42.6926 36.7407 41.9513 36.5556C41.2471 36.3704 40.024 33.8148 39.6163 37.3333C39.5051 38.1111 39.5422 38.9259 39.5422 39.8518C38.875 40.037 38.4303 40.8889 38.5044 41.8148C38.5044 42 38.5785 42.2963 38.5785 42.4815C38.6897 43.0741 38.4674 42.7037 40.3205 42.8148ZM50.587 33.1111H51.5136V33.3333C51.0318 33.3333 51.1059 33.2222 50.587 33.2222V33.1111ZM24.9764 40.4815C24.5687 40.2222 24.0127 39.5556 23.7162 39.1481L24.7169 37.3333C24.9764 36.8519 24.9764 36.9259 25.347 36.5926C25.6806 36.3333 25.7917 36.1852 26.1253 35.9259L28.4603 34.1111C28.7197 33.8889 29.0162 33.5926 29.3127 33.5185C28.7939 34.5185 25.2358 39.3704 24.9764 40.4815ZM74.4186 37.5926L74.2704 37.7037C74.1963 37.963 74.0851 38.0741 73.9739 38.3333L75.3823 39.2963C75.79 39.5926 75.6788 39.5926 75.7529 40.1481C75.79 40.4074 75.827 40.8889 75.827 41.3333L75.9382 41.6296C76.0494 42.1481 76.0124 42.2593 75.9382 42.6667C75.197 42.8518 75.4564 42.5926 74.7893 42.2593C74.4186 42.0741 73.8997 41.8148 73.4179 41.7778C72.4543 41.6667 71.713 41.3704 71.713 40.3704C72.9361 40 73.0473 40.3333 74.0109 40.6296C73.8627 39.1852 71.8983 38.963 71.7872 37.9259C71.6018 36.1852 74.3075 36 74.6781 36.1481C74.8634 36.7407 74.641 37.1111 74.4186 37.5926ZM25.9029 39.2222C25.9029 39.2593 25.94 39.2593 25.9029 39.2222V39.2222ZM25.6806 39.7407C25.7547 39.4444 25.6806 39.5926 25.9029 39.4444C25.8288 39.7407 25.9029 39.5926 25.6806 39.7407ZM25.5694 39.963V40.2593C25.2358 40.1481 25.384 40.1852 25.5694 39.963ZM65.227 41.2222C65.857 41.5926 65.7088 41.5185 66.7095 41.5185C66.9319 41.963 66.8207 42.2222 67.3396 42.3333C67.3396 43.3704 66.8948 43.5185 66.0794 43.4074C65.4493 43.3333 64.671 43.6296 64.5598 42.3333C63.6703 42.3333 63.0402 42.2222 62.2619 42.2222L61.5577 42.2593L61.4095 43.037L59.964 43.1481L59.371 43.2593C59.2598 43.4074 59.5563 43.3704 59.0374 43.4074C58.4815 43.6296 57.4437 45.1111 59.0374 45.9259C59.0374 46.7407 59.0745 47.3333 59.1486 48C58.7038 47.7407 58.3332 47.4444 57.7031 47.3704V45.6667C57.4808 45.1852 57.5919 42.5185 57.6661 41.8148C58.2591 41.8518 58.3332 42.1481 58.6668 42.4444C60.4829 42.1111 60.2605 41.2222 60.6311 40.963C61.0018 40.7037 62.7808 41.1111 63.5962 41.037L63.5591 39.5556L64.9305 39.4074C64.8934 40.4444 64.9305 40.3704 65.227 41.2222ZM25.2729 40.7778C25.0505 40.7778 25.2358 40.7778 25.2358 40.6296C25.2358 40.4444 25.0505 40.5185 25.2358 40.5555C25.2729 40.5555 25.5694 40.7778 25.2729 40.7778ZM20.084 56.8889C19.7134 56.6296 19.1945 55.5926 18.9721 55.1111C18.7127 54.5556 18.7497 54.7407 18.8609 54C19.8987 45.5926 23.1603 40.6667 23.4197 39.5556C23.9756 39.7037 23.8645 40.2222 24.754 40.8148C22.6784 44.7778 20.9365 49.963 20.3064 54.5556C20.2323 55.2593 20.084 56.1111 20.084 56.8889ZM21.1218 56.7778C20.4546 56.2963 20.4917 55.4444 20.5658 54.8889C20.677 54.037 20.7512 53.4444 20.9365 52.6667C21.5665 49.5926 22.1595 47.5185 23.3085 44.6667C23.5679 44.037 23.7903 43.5185 24.0868 42.8519L24.7169 41.5185C24.9393 41.1111 24.754 41.2593 25.0875 41.1481C24.9393 41.7407 24.6428 42.2963 24.4204 42.8519C22.7896 46.6667 21.1218 52.7037 21.1218 56.7778ZM22.7896 59.2593C22.5302 59.0741 21.4553 57.7407 21.4553 57.1852C21.4553 55.5556 21.6777 54.037 21.9372 52.5926C22.3819 50.3333 23.1232 47.1481 23.9756 44.963C24.198 44.3704 24.4204 43.8519 24.6428 43.2222C24.8652 42.5185 25.0875 42.0741 25.4211 41.4815C25.7547 41.5555 25.8288 41.7407 26.0882 41.963C26.3477 42.3333 26.3477 42.3333 26.7183 42.5555C26.6442 42.8518 26.4959 43.1111 26.3477 43.4444C26.1994 43.7778 26.0882 44 25.9771 44.3333C24.4204 48.2963 23.6791 51.3333 23.0491 55.6296C23.012 55.963 22.9749 56.4074 22.9008 56.8519C22.8267 57.2963 22.8638 57.5556 22.8638 58.037C22.9008 58.5926 22.7896 58.6667 22.7896 59.2593ZM29.7204 54.4815C29.7204 55.4444 30.0169 56.3704 30.3134 57.1111C30.61 57.8519 30.6841 58.1111 31.1288 58.7778C31.9442 59.963 33.3897 61.9259 34.5757 62.7037C35.2799 63.1852 37.9855 64.6667 38.838 65C40.3576 65.5926 42.0254 66.2963 44.0639 66.2963C44.1751 66.7407 44.2863 67.2222 44.2863 67.7407C41.1359 67.7407 40.0611 67.7407 36.8366 67.1852C32.1666 66.3704 28.0155 64.7037 24.6798 61.3704C23.7903 60.4815 23.1232 60.1111 23.0861 59.3333C23.0491 58.6296 23.1603 57.9259 23.1973 57.1481C23.1973 56.4074 23.3826 55.2222 23.5309 54.4815C23.6791 53.6296 23.8274 52.8148 23.9756 51.9259C24.3833 49.8148 25.9029 44.7778 26.9407 42.8519L28.3491 43.8148C29.0533 44.3704 28.905 44.2963 29.7575 44.7778L32.8337 46.5926C32.8337 46.8518 32.4631 48.5926 32.389 48.8148L31.1659 50.3704C30.4617 51.2222 29.7204 53 29.7204 54.4815ZM32.8337 48.5556C32.8337 48 33.1303 47.3333 33.2414 46.7778C33.5379 46.9259 34.0198 47.2222 34.3904 47.2963L32.8337 48.5556ZM62.1137 49.9259L62.5214 50.037L62.7437 50.1481C63.2626 50.1481 63.5591 50.3333 64.078 50.3704C63.9668 50.8518 63.9298 50.4444 63.8556 51C65.227 51.037 65.3011 51.8889 66.0424 53.1852C66.2277 53.5185 66.4501 53.7778 66.5612 54.2222C65.9682 54.5556 65.9312 54.5556 65.9312 55.4815C66.0424 55.5926 66.0424 55.2963 66.0424 55.7778C66.5242 56.1481 67.1913 57.4444 69.5634 58.6667C69.5634 59.4444 69.6746 59.8889 70.0081 60.4074C70.4158 61.037 70.7494 61.037 71.5648 60.8519C71.9725 60.3704 72.1207 60.6667 72.5655 59.9259C73.7515 57.963 78.3103 56.0741 78.3473 56.037C79.2739 55.3704 79.0515 54.4815 79.6445 53.5556C79.5704 53.1852 79.6075 53.2222 79.311 53L78.718 52.6667L76.3459 52.1481C75.4935 52.1481 74.7893 51.8148 73.7515 52C72.6025 51.7037 71.8613 50.8148 71.2683 50.0741C70.8235 49.4815 69.8969 48.1852 69.934 47.2222C70.4899 47.2222 71.4906 48.1111 71.676 48.4444C72.1578 48.7407 72.9732 49.6667 73.4179 50.1481C73.7144 50.4444 73.9368 50.7407 74.2704 50.963C74.5669 51.1481 75.1228 51.4074 75.5305 51.4815C77.3466 51.6667 78.2732 51.8148 80.1634 51.4444C81.1271 51.2593 80.9788 50.5926 81.8683 50.5555C82.6467 50.5185 82.9432 51.2222 83.0914 51.8148C83.5732 52.5556 83.8698 53.0741 85.0928 53.0741L85.5005 56.1111C85.6859 57.7407 85.4635 61.1481 85.3152 62.8148C85.204 63.8519 84.9816 64.963 84.9075 65.9259C84.0921 66.1111 83.1285 66.4815 82.3131 66.7778C81.4606 67.0741 80.4599 67.2593 79.5334 67.5185C77.9767 67.9259 76.7907 68.1481 75.1599 68.3333C74.641 68.3704 74.0851 68.5185 73.6032 68.5556C72.899 68.6667 71.3424 68.8518 70.6011 68.7407L73.8627 65.2963C74.641 64.4815 73.9739 64.2593 74.3074 63.6296C74.3445 62.8518 74.4928 62.7037 74.9375 62.2963C74.2704 62.2963 73.6774 62.4815 72.9732 62.5185C72.2319 62.5185 71.3424 62.4444 70.7864 62.4444C69.7857 62.2593 69.4151 61.7778 68.9333 61.2593C68.4144 60.7037 67.8955 60.2963 67.4508 59.7037C67.4508 58.8148 67.4508 58.8519 67.3396 58.037C67.1172 57.6296 66.8578 57.4074 66.4501 57.2222C64.1892 56.6667 65.4493 57.4444 63.7444 53.2963C63.0032 51.5185 62.2619 50.5555 62.0395 50.0741C61.6318 49.7037 61.4095 49.4074 60.8535 49.1481L59.7787 48.6667C59.5934 48.5555 59.5934 48.5185 59.408 48.4074V46.2222C59.6304 46.3333 59.9269 46.3333 60.1493 46.4074C61.0388 46.4074 62.4472 46.2222 63.1144 46.5185L63.1885 47.4815C63.0032 48 62.9291 48.3333 62.7437 48.8148C62.4843 49.037 62.1507 49.4444 62.1137 49.9259ZM86.8348 53.8519L87.2054 56.4815C87.3166 57.2963 87.3537 58.4815 87.3537 59.3333L86.946 64.9259C86.353 65.0741 85.9082 65.4074 85.2782 65.5556C85.6858 63.7407 85.6488 61.5556 85.797 59.6296C85.8712 58.5556 85.9453 57.7037 85.797 56.5926C85.76 56.1111 85.7229 55.5556 85.6859 55.1482C85.6117 54.5556 85.5747 54.1852 85.5376 53.5926C85.3152 52.8148 84.9446 50.963 85.5376 50.2593C86.1677 50.5926 85.6488 51.1111 86.1677 51.9259C86.6124 52.6296 86.7236 52.5185 86.8348 53.8519ZM94.9146 51.0741C95.5076 51.2222 95.2852 51.2593 95.6558 52.4074C95.8412 52.9259 95.9153 53.5185 96.5824 53.5556C96.5824 54.1111 96.7677 54.8148 96.8048 55.4074C96.8419 56.1111 96.916 56.5556 96.916 57.3704L96.6195 56.5556L95.5817 56.6667C95.5447 55.7407 95.137 51.5555 94.9146 51.0741ZM97.0642 52.1111C97.0642 51.8518 97.1013 51.5555 97.1013 51.2963L97.1754 50.963C97.2866 50.7407 97.1013 50.7037 97.9538 50.7407C98.102 51.7037 98.658 53.7037 98.3615 54.5185C98.1761 54.8889 98.065 55.2963 97.8796 55.7037C97.7314 56 97.4349 56.5556 97.2125 56.7037C97.1754 55.2963 96.6195 53.3704 97.0642 52.1111ZM90.9488 59.8889L91.3195 52.9259C92.3572 52.1111 92.9132 51.9259 92.9132 51.1852C92.9132 50.7778 92.9132 50.4444 92.9502 50.037L94.3957 50.4815C94.3957 50.4815 94.4698 50.5556 94.4698 50.5185C94.4698 50.4815 94.5069 50.5555 94.544 50.5555L94.6922 52.2222C94.8405 53.6667 95.0999 55.037 95.0999 56.6667H94.6922C94.8034 57.037 94.9516 57 95.2111 57.1852C95.2111 59.4074 95.5076 59.3704 94.0992 60.4444C93.5432 60.8889 93.6174 61 92.5796 61.6296L92.2831 61.8518C91.8013 62.5185 87.9096 64.5926 87.2054 64.7778L87.5019 59.8889C87.5019 59.037 87.5019 58.1481 87.5019 57.2963C87.5019 56.4444 87.2796 55.7037 87.2796 54.8148C87.5761 55.037 88.2061 55.8519 88.1691 56.3333C88.095 57.7778 87.7984 58.6296 89.1327 58.963C89.5404 59.0741 89.281 58.8889 89.5404 59.1852C89.7257 59.4074 90.3558 60.8519 90.8006 61.1481C91.0229 60.8148 91.0229 60.3333 90.9488 59.8889ZM20.3805 56.3704L20.8623 57.1111C21.0477 57.5185 21.0106 57.7037 21.0106 58.2222C20.8253 58 20.5658 57.7778 20.4176 57.4444C20.2693 57.1481 20.3805 56.9259 20.3805 56.3704ZM97.2125 57.4815L97.5461 57C97.8055 56.5926 98.4356 55.4815 98.4726 55.1111C98.8062 55.3704 98.658 55.2963 98.7691 56.4815L98.8803 58.1111V58.7407V59.2593V60.5556C98.5468 60.3704 97.8796 59.8889 97.7314 59.5926C97.5461 59.3704 97.3978 59.1111 97.3237 58.7778C97.0272 58.3704 96.8048 57.8518 97.2125 57.4815ZM95.6558 58.8519C95.5447 58.3333 95.5447 58.037 95.5447 57.4074C95.8782 57.5926 96.7677 58.0741 95.6558 58.8519ZM21.3442 58C21.4924 58.1111 22.7896 59.5185 22.7896 60.1852C22.419 59.9259 22.2707 59.5926 21.9372 59.2593C21.4553 58.8148 21.3442 58.8889 21.3442 58ZM19.8616 62.4815C19.7134 62.3704 18.4162 60.963 18.4162 60.2963C18.4162 59.8889 18.4162 59.4815 18.4162 59.037C18.4162 58.3333 18.6385 56.7037 18.6385 55.4074C18.9351 55.6296 19.2316 56.2963 19.4539 56.6667C19.8987 57.3704 20.0099 57.1482 20.0099 58.2963C20.0099 59 19.8987 59.4444 19.8987 60.2593C19.8616 61.037 19.8616 61.7407 19.8616 62.4815ZM22.7896 60.7778C23.0861 60.9259 22.9749 60.8518 23.1232 61.1111L25.1246 62.7037C26.3106 63.6667 27.3855 64.1481 28.4974 64.8148L30.9065 66.1481C31.3512 66.3704 31.796 66.5185 32.2037 66.7037C35.5394 68.1481 39.7646 69.0741 44.5457 69.0741V69.4815C42.4702 69.4815 25.9029 69.6667 24.3092 69.3333C23.605 69.1852 22.7896 68.6667 22.5302 68.2593C21.9001 67.2963 22.6414 66.7778 22.8638 66.1481C22.0484 65.4815 21.9001 65.1852 21.7148 63.7778L21.3071 59.2222C21.7148 59.4815 21.6777 59.6667 22.0113 59.963L22.7896 60.7778ZM24.3463 61.5556C24.0127 61.4444 23.9015 61.2593 23.6421 61C23.3456 60.7037 23.1232 60.6296 23.0861 60.1852C23.1973 60.2593 24.2722 61.4074 24.3463 61.5556ZM95.5447 61.7407C95.5817 61.2222 95.6558 60.8889 95.6558 60.1852C95.6558 59.3333 95.6558 59.2963 96.1747 58.9259C96.2118 59.5185 96.4712 60.2222 96.5824 60.7778C96.36 61.1481 95.9894 61.6296 95.5447 61.7407ZM20.1952 61.6296V59.2593C20.1952 58.6296 20.3064 58.5185 20.3064 57.9259C21.4183 59.1852 20.9735 59.0741 21.0477 60.2963C21.0847 61.2222 21.27 62.3333 21.3442 63.1852C21.1218 62.963 20.1952 61.963 20.1952 61.6296ZM20.1952 61.6296L24.5687 61.7407L20.1952 61.6296ZM87.0572 66.7407L87.1684 65.2963C87.5019 65.1111 87.8355 64.9259 88.2432 64.7407L89.3551 64.1852C90.8006 63.4074 93.0985 62 94.2845 60.8148C94.581 60.4815 94.8775 60.2593 95.2482 60V62.1852C91.9125 64.4074 93.2097 63.8148 89.281 65.7778C88.5397 66.1481 87.7614 66.3333 87.0572 66.7407ZM96.3971 69.5185H94.7293C94.9146 69.1111 95.2482 66.6667 95.3223 66.0741C95.4705 64.8148 95.5447 63.5185 95.5447 62.1481C96.4342 61.7037 96.2118 61.3704 96.8048 61.2222C97.2125 62.9259 97.0272 61.1481 97.0272 63.0741C97.0272 64 96.9531 64.5185 96.916 65.3704C96.8419 66.7778 96.4712 68.4444 96.3971 69.5185ZM94.3957 69.5185H86.6124L86.946 67.037L89.2069 66.1111C91.5789 64.963 92.1348 64.7037 94.2845 63.2222C94.581 63 94.9146 62.7037 95.2111 62.4815L94.3957 69.5185ZM97.5461 69.5185H96.7307C96.7307 68.963 97.1013 67.2222 97.1384 66.1111C97.1754 64.8889 97.3608 63.8518 97.3608 62.4815C97.9167 62.8518 97.7314 63.1852 98.695 63.8148C98.695 64.1852 98.5468 64.9259 98.5097 65.2963C98.4356 65.8519 98.3615 66.3333 98.2873 66.8518L97.9167 68.963C97.8426 69.2593 97.8796 69.5185 97.5461 69.5185ZM86.7236 66.8148C86.2047 66.9259 85.6858 67.2963 85.0928 67.3333C85.0928 65.4074 85.5376 66.037 86.8719 65.3704L86.7236 66.8148ZM33.3526 66.8148C32.8337 66.8148 33.1673 66.8148 33.0561 66.7037C33.6121 66.7407 33.2044 66.7407 33.3526 66.8148ZM33.3526 66.8148L35.8729 67.4074C38.4303 68 40.4688 67.9259 42.9149 68.1481C43.5821 68.2222 43.8786 68.0741 44.3604 68.037C44.3604 68.4815 44.4345 68.3704 44.4716 68.7778C40.6911 68.7778 37.3555 68.2222 33.9086 67.0741L33.3526 66.8148ZM84.6481 67.5556L81.8683 68.2963C78.4956 69.0741 76.2347 69.5185 72.4172 69.5185C72.9361 68.7407 73.1214 68.8148 73.5291 68.7778L78.6068 67.9259C79.9411 67.6667 83.7586 66.7037 84.7593 66.2222C84.7593 66.8519 84.6481 67.037 84.6481 67.5556ZM86.3159 69.5185H84.7593C84.7593 68.7407 84.9816 68.3333 84.9816 67.6667C85.6488 67.6296 86.0565 67.2963 86.6495 67.2593C86.6124 67.963 86.3159 68.8148 86.3159 69.5185ZM84.3516 69.5185L77.6061 69.4074C79.1627 69.4074 84.4628 67.8518 84.6481 67.8518C84.5369 68.1111 84.4257 69.1481 84.3516 69.5185Z" fill="#161A7C"/>
</g>
<g filter="url(#filter1_d_152_292)">
<path d="M91.2679 80.9L93.1682 77.15H96V77.3H95.7764C95.5901 77.3 95.4038 77.3375 95.292 77.375C95.2175 77.4125 95.143 77.4875 95.1057 77.5625C95.0685 77.6375 95.0312 77.825 95.0312 78.0875V81.8375C95.0312 82.1375 95.0685 82.325 95.1057 82.4C95.143 82.475 95.2175 82.55 95.3293 82.5875C95.4411 82.625 95.5901 82.6625 95.7764 82.6625H96V82.8125H92.3857V82.6625H92.6093C92.7956 82.6625 92.9819 82.625 93.0937 82.5875C93.1682 82.55 93.2427 82.475 93.28 82.4C93.3172 82.325 93.3545 82.1375 93.3545 81.875V77.675L90.6717 82.85H90.5599L87.8399 77.7125V81.725C87.8399 82.025 87.8399 82.175 87.8771 82.25C87.9144 82.4 88.0262 82.5125 88.1752 82.5875C88.3243 82.6625 88.5478 82.7375 88.8832 82.7375V82.8875H86.4985V82.7375H86.573C86.722 82.7375 86.8711 82.7375 87.0201 82.6625C87.1692 82.625 87.2437 82.55 87.3182 82.475C87.3927 82.4 87.43 82.2875 87.4673 82.175C87.4673 82.1375 87.4673 81.9875 87.4673 81.725V78.125C87.4673 77.825 87.4673 77.6375 87.3927 77.5625C87.3555 77.4875 87.281 77.4125 87.1692 77.375C87.0574 77.3375 86.9084 77.3 86.6848 77.3H86.4612V77.15H89.2931L91.2679 80.9ZM83.3686 77L83.4058 78.9125H83.1823C83.0705 78.425 82.8469 78.05 82.4371 77.75C82.0645 77.45 81.6173 77.3 81.1702 77.3C80.8348 77.3 80.5368 77.375 80.3505 77.525C80.1642 77.675 80.0524 77.8625 80.0524 78.05C80.0524 78.1625 80.0896 78.275 80.1642 78.3875C80.2759 78.5 80.425 78.65 80.6485 78.7625C80.7976 78.8375 81.1702 79.025 81.7664 79.25C82.5861 79.5875 83.145 79.8875 83.4058 80.1875C83.7039 80.4875 83.8157 80.825 83.8157 81.2C83.8157 81.6875 83.5921 82.1 83.145 82.4375C82.6979 82.775 82.1017 82.9625 81.431 82.9625C81.2075 82.9625 81.0211 82.9625 80.7976 82.925C80.6113 82.8875 80.3504 82.8125 80.0524 82.7375C79.9033 82.7 79.7543 82.6625 79.6425 82.6625C79.568 82.6625 79.4562 82.7 79.3444 82.7375C79.2326 82.8125 79.1581 82.8875 79.1208 83H78.9345V80.8625H79.1208C79.2699 81.4625 79.568 81.9125 79.9778 82.25C80.425 82.55 80.8721 82.7375 81.3565 82.7375C81.7291 82.7375 82.0272 82.6625 82.288 82.475C82.5116 82.2875 82.6234 82.1 82.6234 81.875C82.6234 81.725 82.5861 81.6125 82.4743 81.5C82.3998 81.3875 82.2508 81.2375 82.0645 81.125C81.8782 81.0125 81.5801 80.8625 81.1329 80.675C80.4995 80.4125 80.0524 80.1875 79.7543 80.0375C79.4935 79.85 79.2699 79.6625 79.1208 79.4375C78.9718 79.2125 78.8973 78.9875 78.8973 78.725C78.8973 78.275 79.0836 77.9 79.4934 77.5625C79.9033 77.225 80.425 77.075 81.0211 77.075C81.2447 77.075 81.4683 77.1125 81.6918 77.15C81.8409 77.1875 82.0644 77.2625 82.288 77.3375C82.5116 77.4125 82.6979 77.4875 82.7724 77.4875C82.8469 77.4875 82.9215 77.45 82.996 77.4125C83.0332 77.375 83.1078 77.2625 83.145 77.075H83.3686V77ZM73.6435 77.15V78.6875H73.4572C73.3454 78.35 73.2336 78.0875 73.0846 77.9375C72.9356 77.7875 72.7492 77.675 72.5257 77.5625C72.4139 77.525 72.1531 77.4875 71.855 77.4875H71.3333V81.875C71.3333 82.175 71.3706 82.3625 71.4079 82.4375C71.4451 82.5125 71.5196 82.5875 71.6314 82.625C71.7432 82.6625 71.8922 82.7 72.0785 82.7H72.3021V82.85H68.6878V82.7H68.9114C69.0977 82.7 69.284 82.6625 69.3958 82.625C69.4703 82.5875 69.5448 82.5125 69.6193 82.4375C69.6566 82.3625 69.6939 82.175 69.6939 81.9125V77.525H69.1722C68.7251 77.525 68.3525 77.6 68.1662 77.75C67.8681 77.975 67.6818 78.3125 67.6073 78.725H67.4209V77.1875H73.6435V77.15ZM60.6022 77.45V79.925H60.9003C61.3847 79.925 61.72 79.8875 61.9809 79.8125C62.2044 79.7375 62.3907 79.625 62.5398 79.4375C62.6888 79.25 62.7261 79.025 62.7261 78.725C62.7261 78.275 62.6143 77.975 62.3535 77.75C62.0926 77.5625 61.72 77.45 61.1611 77.45H60.6022ZM60.6022 80.225V81.8375C60.6022 82.1375 60.6395 82.325 60.6767 82.4C60.714 82.475 60.7885 82.55 60.9376 82.5875C61.0493 82.625 61.2729 82.6625 61.6083 82.6625V82.8125H58.0685V82.6625C58.4038 82.6625 58.6274 82.625 58.7392 82.5875C58.851 82.55 58.9255 82.475 58.9627 82.4C59 82.325 59.0373 82.1375 59.0373 81.8375V78.125C59.0373 77.825 59 77.6375 58.9627 77.5625C58.9255 77.4875 58.851 77.4125 58.7019 77.375C58.5901 77.3375 58.3666 77.3 58.0312 77.3V77.15H61.2729C62.1299 77.15 62.7261 77.1875 63.136 77.3C63.5086 77.4125 63.8439 77.5625 64.1047 77.825C64.3656 78.0875 64.4773 78.3875 64.4773 78.725C64.4773 79.1375 64.291 79.475 63.9184 79.775C63.6949 79.9625 63.3595 80.075 62.9124 80.15L64.5891 82.0625C64.8127 82.325 64.9617 82.475 65.0735 82.5125C65.2226 82.5875 65.3716 82.6625 65.5579 82.6625V82.8125H63.3595L61.1239 80.225H60.6022ZM51.6596 77.45V79.775H51.8087C52.2558 79.775 52.5539 79.6625 52.7774 79.4375C52.9637 79.2125 53.1128 78.875 53.15 78.425H53.3364V81.3875H53.15C53.1128 81.05 53.0383 80.7875 52.8892 80.6C52.7402 80.375 52.5911 80.2625 52.4421 80.1875C52.2558 80.1125 51.995 80.075 51.6969 80.075V81.6875C51.6969 81.9875 51.6969 82.175 51.7341 82.25C51.7714 82.325 51.8087 82.3625 51.9204 82.4375C51.995 82.475 52.144 82.5125 52.3676 82.5125H52.7774C53.4109 82.5125 53.9325 82.4 54.3424 82.1375C54.7523 81.875 55.0131 81.5375 55.1994 81.0125H55.3857L55.0876 82.8125H49.0886V82.6625H49.3122C49.4985 82.6625 49.6848 82.625 49.7966 82.5875C49.8711 82.55 49.9456 82.475 49.9829 82.4C50.0201 82.325 50.0574 82.1375 50.0574 81.875V78.125C50.0574 77.8625 50.0574 77.7125 50.0201 77.6375C49.9829 77.525 49.9084 77.45 49.8338 77.4125C49.7221 77.3375 49.5358 77.3 49.3122 77.3H49.0886V77.15H54.9013V78.8375H54.715C54.6032 78.425 54.4914 78.125 54.3051 77.9375C54.1188 77.75 53.858 77.6375 53.5599 77.525C53.3736 77.4875 53.001 77.45 52.4794 77.45H51.6596ZM43.2014 77.45V79.925C43.3132 79.925 43.3877 79.925 43.4622 79.925C43.8721 79.925 44.2075 79.8125 44.431 79.625C44.6546 79.4375 44.7664 79.1 44.7664 78.6875C44.7664 78.275 44.6546 77.9375 44.431 77.75C44.2075 77.5625 43.8721 77.45 43.425 77.45H43.2014ZM43.2014 80.2625V81.8375C43.2014 82.1375 43.2387 82.325 43.2759 82.4375C43.3132 82.5125 43.3877 82.5875 43.5368 82.625C43.6485 82.6625 43.8721 82.7 44.1702 82.7V82.85H40.6304V82.7C40.9658 82.7 41.1893 82.6625 41.3011 82.625C41.4129 82.5875 41.4874 82.5125 41.5247 82.4375C41.5619 82.3625 41.5992 82.175 41.5992 81.8375V78.125C41.5992 77.825 41.5619 77.6375 41.5247 77.525C41.4874 77.45 41.4129 77.375 41.2638 77.3375C41.1521 77.3 40.9285 77.2625 40.5932 77.2625V77.1125H43.6113C44.6173 77.1125 45.3253 77.2625 45.7724 77.5625C46.2195 77.8625 46.4431 78.2 46.4431 78.65C46.4431 79.025 46.2941 79.325 46.0332 79.5875C45.7351 79.85 45.3625 80.0375 44.8781 80.1125C44.5801 80.225 44.0211 80.2625 43.2014 80.2625ZM35.2649 79.475L37.1652 81.8C37.5005 82.175 37.7241 82.4375 37.8359 82.5125C37.9849 82.5875 38.1339 82.6625 38.3202 82.6625V82.8125H34.9295V82.6625C35.1903 82.6625 35.3766 82.625 35.4512 82.55C35.5257 82.5125 35.5629 82.4375 35.5629 82.3625C35.5629 82.325 35.5629 82.25 35.5257 82.2125C35.4884 82.1375 35.3394 81.9875 35.1531 81.725L34.147 80.4875L33.1037 81.5375C32.7684 81.875 32.6193 82.1 32.6193 82.2125C32.6193 82.2875 32.6566 82.3625 32.7311 82.4375C32.8056 82.5125 32.9174 82.55 33.1037 82.5875C33.1782 82.5875 33.3273 82.625 33.5509 82.625V82.775H30.8681V82.625C31.1662 82.5875 31.427 82.5125 31.576 82.4375C31.7996 82.325 32.1349 82.025 32.5448 81.6125L33.9235 80.225L32.1722 78.0875C31.8741 77.75 31.7251 77.525 31.6878 77.4875C31.6133 77.375 31.5015 77.3375 31.427 77.3C31.3525 77.2625 31.2034 77.225 31.0544 77.225V77.075H34.5196V77.225H34.3333C34.147 77.225 33.998 77.2625 33.9235 77.3C33.8489 77.3375 33.8117 77.4125 33.8117 77.4875C33.8117 77.5625 33.8117 77.6 33.8489 77.6375L34.1843 78.0875L35.0413 79.1375L35.7492 78.425C36.1219 78.05 36.3082 77.7875 36.3082 77.6375C36.3082 77.5625 36.2709 77.4875 36.2336 77.4125C36.1964 77.3375 36.1219 77.3 36.0101 77.2625C35.8983 77.225 35.7492 77.225 35.5629 77.225V77.075H38.1339V77.225C37.9476 77.225 37.7613 77.2625 37.6495 77.3C37.5378 77.3375 37.3887 77.4125 37.2397 77.525C37.1652 77.6 36.9416 77.7875 36.569 78.1625L35.2649 79.475ZM24.6455 77.45V79.775H24.7946C25.2417 79.775 25.5398 79.6625 25.7633 79.4375C25.9496 79.2125 26.0987 78.875 26.136 78.425H26.3223V81.3875H26.136C26.0987 81.05 26.0242 80.7875 25.8751 80.6C25.7261 80.375 25.577 80.2625 25.428 80.1875C25.2417 80.1125 24.9809 80.075 24.6828 80.075V81.6875C24.6828 81.9875 24.6828 82.175 24.72 82.25C24.7573 82.325 24.7946 82.3625 24.9063 82.4375C24.9809 82.475 25.1299 82.5125 25.3535 82.5125H25.7633C26.3968 82.5125 26.9184 82.4 27.3283 82.1375C27.7382 81.875 27.999 81.5375 28.1853 81.0125H28.3716L28.0735 82.8125H22V82.6625H22.2236C22.4099 82.6625 22.5962 82.625 22.708 82.5875C22.7825 82.55 22.857 82.475 22.8943 82.4C22.9315 82.325 22.9688 82.1375 22.9688 81.875V78.125C22.9688 77.8625 22.9688 77.7125 22.9315 77.6375C22.8943 77.525 22.8197 77.45 22.7452 77.4125C22.6334 77.3375 22.4471 77.3 22.2236 77.3H22V77.15H27.8127V78.8375H27.6264C27.5146 78.425 27.4028 78.125 27.2165 77.9375C27.0302 77.75 26.7694 77.6375 26.4713 77.525C26.285 77.4875 25.9124 77.45 25.3907 77.45H24.6455Z" fill="#161A7C"/>
</g>
<g filter="url(#filter2_d_152_292)">
<path d="M90.0082 90.72H91.3361C91.3361 90.52 91.2992 90.36 91.2623 90.28C91.2254 90.16 91.1148 90.04 91.041 89.96C90.9303 89.88 90.8197 89.84 90.709 89.84C90.5246 89.84 90.377 89.92 90.2295 90.08C90.1189 90.24 90.0082 90.44 90.0082 90.72ZM90.0082 90.92C90.0082 91.4 90.1189 91.76 90.3033 92C90.5246 92.28 90.7459 92.4 91.041 92.4C91.2254 92.4 91.4098 92.36 91.5205 92.24C91.668 92.12 91.7787 91.92 91.8893 91.64L92 91.72C91.9631 92.04 91.8156 92.32 91.6311 92.56C91.4098 92.8 91.1516 92.96 90.8197 92.96C90.4877 92.96 90.1926 92.8 89.9344 92.52C89.6762 92.24 89.5656 91.84 89.5656 91.32C89.5656 90.8 89.6762 90.36 89.9344 90.08C90.1926 89.76 90.4877 89.64 90.8934 89.64C91.2254 89.64 91.4836 89.76 91.7049 90C91.9262 90.24 92 90.56 92 90.92H90.0082ZM87.1311 90.28C87.4631 89.84 87.7951 89.64 88.0902 89.64C88.2377 89.64 88.3852 89.68 88.4959 89.76C88.6066 89.84 88.7172 90 88.7541 90.2C88.791 90.32 88.8279 90.56 88.8279 90.84V92.2C88.8279 92.4 88.8279 92.52 88.8648 92.6C88.9016 92.64 88.9385 92.72 88.9754 92.72C89.0123 92.76 89.123 92.76 89.2705 92.76V92.88H87.832V92.76H87.9057C88.0533 92.76 88.127 92.72 88.2008 92.68C88.2377 92.64 88.2746 92.56 88.3115 92.48C88.3115 92.44 88.3115 92.32 88.3115 92.16V90.88C88.3115 90.6 88.2746 90.4 88.2008 90.24C88.127 90.12 88.0164 90.04 87.8689 90.04C87.6107 90.04 87.3893 90.2 87.1311 90.48V92.16C87.1311 92.36 87.1311 92.52 87.168 92.56C87.2049 92.64 87.2418 92.68 87.2787 92.72C87.3156 92.76 87.4262 92.76 87.6107 92.76V92.88H86.1721V92.76H86.2459C86.3934 92.76 86.5041 92.72 86.541 92.64C86.5779 92.56 86.6148 92.4 86.6148 92.16V91C86.6148 90.64 86.6148 90.4 86.5779 90.32C86.5779 90.24 86.541 90.2 86.5041 90.16C86.4672 90.12 86.4303 90.12 86.3566 90.12C86.2828 90.12 86.209 90.12 86.1352 90.16L86.0984 90.04L86.9836 89.64H87.1311V90.28ZM85.5082 89.64V92.16C85.5082 92.36 85.5082 92.48 85.5451 92.56C85.582 92.64 85.6189 92.68 85.6557 92.72C85.6926 92.76 85.8033 92.76 85.9508 92.76V92.88H84.5492V92.76C84.6967 92.76 84.7705 92.76 84.8443 92.72C84.8811 92.68 84.918 92.64 84.9549 92.56C84.9918 92.48 84.9918 92.36 84.9918 92.16V90.96C84.9918 90.64 84.9918 90.4 84.9549 90.32C84.9549 90.24 84.918 90.2 84.8811 90.16C84.8443 90.12 84.8074 90.12 84.7705 90.12C84.6967 90.12 84.623 90.12 84.5492 90.16L84.5123 90.04L85.3975 89.64H85.5082ZM85.25 88C85.3238 88 85.3975 88.04 85.4713 88.12C85.5451 88.2 85.582 88.28 85.582 88.36C85.582 88.44 85.5451 88.52 85.4713 88.6C85.3975 88.68 85.3238 88.72 85.25 88.72C85.1762 88.72 85.1025 88.68 85.0287 88.6C84.9549 88.52 84.918 88.44 84.918 88.36C84.918 88.28 84.9549 88.2 85.0287 88.12C85.0656 88.04 85.1393 88 85.25 88ZM83.8484 89.64V90.72H83.7377C83.6639 90.4 83.5533 90.16 83.4426 90.04C83.332 89.92 83.1475 89.84 82.9631 89.84C82.8156 89.84 82.7049 89.88 82.5943 89.96C82.5205 90.04 82.4467 90.12 82.4467 90.24C82.4467 90.36 82.4836 90.48 82.5574 90.56C82.6311 90.64 82.7418 90.76 82.9631 90.84L83.4057 91.08C83.8484 91.32 84.0328 91.6 84.0328 91.96C84.0328 92.24 83.9221 92.48 83.7377 92.64C83.5533 92.8 83.332 92.92 83.0738 92.92C82.8893 92.92 82.7049 92.88 82.4836 92.8C82.4098 92.76 82.373 92.76 82.2992 92.76C82.2623 92.76 82.2254 92.8 82.1885 92.84H82.0779V91.8H82.1885C82.2623 92.12 82.373 92.36 82.5205 92.52C82.668 92.68 82.8893 92.76 83.0738 92.76C83.2213 92.76 83.332 92.72 83.4426 92.64C83.5164 92.56 83.5902 92.44 83.5902 92.32C83.5902 92.16 83.5533 92.04 83.4426 91.92C83.332 91.8 83.1475 91.68 82.8156 91.52C82.5205 91.36 82.2992 91.2 82.2254 91.08C82.1148 90.96 82.0779 90.8 82.0779 90.6C82.0779 90.36 82.1516 90.12 82.3361 89.96C82.4836 89.8 82.7049 89.68 82.9631 89.68C83.0738 89.68 83.2213 89.72 83.3689 89.76C83.4795 89.8 83.5533 89.8 83.5902 89.8C83.627 89.8 83.6639 89.8 83.6639 89.76C83.6639 89.76 83.7008 89.72 83.7377 89.64H83.8484ZM81.3033 89.72V91.64C81.3033 92 81.3033 92.2 81.3402 92.28C81.3402 92.36 81.377 92.4 81.4139 92.44C81.4508 92.48 81.4877 92.48 81.5246 92.48C81.5984 92.48 81.6721 92.48 81.7459 92.44L81.7828 92.56L80.9344 92.96H80.75V92.32C80.4918 92.6 80.3074 92.8 80.1967 92.88C80.0492 92.96 79.9385 93 79.791 93C79.6434 93 79.4959 92.96 79.3852 92.84C79.2746 92.72 79.2008 92.6 79.1271 92.44C79.0902 92.28 79.0533 92.04 79.0533 91.76V90.36C79.0533 90.2 79.0533 90.12 79.0164 90.04C78.9795 90 78.9426 89.92 78.8689 89.92C78.7951 89.88 78.7213 89.88 78.5369 89.88V89.76H79.5328V91.88C79.5328 92.16 79.5697 92.36 79.6803 92.44C79.791 92.52 79.9016 92.56 80.0123 92.56C80.0861 92.56 80.1967 92.52 80.3074 92.48C80.418 92.4 80.5656 92.32 80.7131 92.12V90.36C80.7131 90.16 80.6762 90.04 80.6393 90C80.5656 89.92 80.4549 89.92 80.2705 89.88V89.76H81.3033V89.72ZM75.5861 92.52C75.8443 92.6 76.0656 92.6 76.3238 92.6C76.6926 92.6 76.9877 92.52 77.209 92.32C77.3934 92.12 77.5041 91.92 77.5041 91.64C77.5041 91.48 77.4672 91.28 77.3566 91.12C77.2459 90.96 77.0984 90.84 76.9139 90.72C76.6926 90.64 76.4713 90.56 76.1393 90.56C75.9918 90.56 75.8811 90.56 75.8074 90.56C75.6967 90.56 75.623 90.56 75.5861 90.6V92.52ZM75.5861 90.32C75.6598 90.32 75.7705 90.36 75.8443 90.36C75.9549 90.36 76.0656 90.36 76.1762 90.36C76.4713 90.36 76.7295 90.32 76.877 90.24C77.0246 90.16 77.1352 90.04 77.2459 89.92C77.3197 89.76 77.3566 89.6 77.3566 89.44C77.3566 89.16 77.2459 88.92 77.0615 88.76C76.8402 88.56 76.5451 88.48 76.1762 88.48C75.9549 88.48 75.7705 88.52 75.623 88.56V90.32H75.5861ZM77.209 90.48C77.5041 90.56 77.7254 90.64 77.873 90.8C78.0943 91 78.168 91.28 78.168 91.56C78.168 91.8 78.0943 92 77.9836 92.24C77.8361 92.44 77.6516 92.6 77.4303 92.72C77.209 92.8 76.8402 92.88 76.3607 92.88H74.332V92.76H74.4795C74.6639 92.76 74.7746 92.68 74.8484 92.56C74.8852 92.48 74.9221 92.32 74.9221 92.04V89.04C74.9221 88.76 74.8852 88.56 74.8484 88.48C74.7746 88.36 74.6639 88.32 74.4795 88.32H74.332V88.2H76.1762C76.5082 88.2 76.8033 88.24 76.9877 88.28C77.3197 88.36 77.541 88.52 77.7254 88.72C77.873 88.92 77.9836 89.16 77.9836 89.44C77.9836 89.68 77.9098 89.88 77.7992 90.08C77.6516 90.28 77.4672 90.4 77.209 90.48ZM70.2008 92.12C69.9057 91.72 69.7213 91.4 69.6107 91.24C69.5 91.04 69.3893 90.8 69.2418 90.52C68.9836 90.68 68.7992 90.84 68.6516 91.04C68.541 91.24 68.4672 91.44 68.4672 91.64C68.4672 91.88 68.541 92.08 68.6885 92.28C68.8361 92.48 69.0205 92.56 69.2787 92.56C69.4262 92.56 69.5369 92.52 69.6475 92.48C69.7951 92.4 69.9795 92.28 70.2008 92.12ZM69.6844 89.96C69.9426 89.84 70.1271 89.68 70.2746 89.52C70.4221 89.36 70.459 89.16 70.459 88.96C70.459 88.8 70.4221 88.64 70.3115 88.56C70.2008 88.44 70.0902 88.4 69.9795 88.4C69.7951 88.4 69.6475 88.48 69.5738 88.6C69.4631 88.72 69.4262 88.88 69.4262 89C69.4262 89.12 69.4262 89.24 69.4631 89.36C69.5369 89.48 69.6107 89.68 69.6844 89.96ZM70.9016 89.88H72.2295V90C72.0451 90 71.8975 90.04 71.8238 90.12C71.75 90.2 71.6025 90.4 71.418 90.76C71.2336 91.12 71.0123 91.44 70.791 91.76C70.9754 92 71.1598 92.16 71.3074 92.24C71.4549 92.32 71.6025 92.4 71.75 92.4C71.8975 92.4 72.0082 92.36 72.1189 92.28C72.2295 92.2 72.3033 92.08 72.3402 91.92L72.4508 92C72.377 92.32 72.2664 92.56 72.082 92.72C71.8975 92.88 71.7131 92.96 71.4918 92.96C71.3074 92.96 71.1598 92.92 70.9754 92.8C70.791 92.68 70.6066 92.52 70.3852 92.28C70.127 92.52 69.9057 92.72 69.6844 92.8C69.4631 92.88 69.2418 92.96 69.0205 92.96C68.6885 92.96 68.3934 92.84 68.209 92.64C67.9877 92.44 67.9139 92.2 67.9139 91.92C67.9139 91.64 67.9877 91.36 68.1721 91.08C68.3566 90.8 68.6885 90.52 69.2049 90.24C69.0943 90 69.0205 89.8 68.9836 89.64C68.9467 89.48 68.9467 89.36 68.9467 89.2C68.9467 88.8 69.0943 88.52 69.3525 88.32C69.5738 88.16 69.7951 88.08 70.0533 88.08C70.3115 88.08 70.4959 88.16 70.6803 88.32C70.8279 88.48 70.9016 88.68 70.9016 88.92C70.9016 89.16 70.8279 89.36 70.6803 89.56C70.5328 89.76 70.2746 89.96 69.8689 90.16C70.127 90.68 70.4221 91.16 70.7172 91.56C71.0861 91.08 71.2705 90.68 71.2705 90.36C71.2705 90.24 71.2336 90.16 71.1598 90.08C71.123 90 71.0492 90 70.9754 89.96V89.88H70.9016ZM61.3484 89.72H62.5656V89.84C62.4549 89.84 62.3811 89.88 62.3443 89.92C62.3074 89.96 62.3074 90 62.3074 90.08C62.3074 90.16 62.3074 90.24 62.3443 90.32L62.9713 92.12L63.5984 90.64L63.4508 90.2C63.4139 90.08 63.3402 89.96 63.2664 89.92C63.2295 89.88 63.1189 89.88 63.0082 89.88V89.76H64.373V89.88C64.2254 89.88 64.1148 89.92 64.0779 89.96C64.041 90 64.0041 90.04 64.0041 90.12C64.0041 90.16 64.0041 90.2 64.041 90.24L64.7049 92.04L65.2951 90.32C65.332 90.2 65.3689 90.08 65.3689 90.04C65.3689 90 65.332 89.96 65.2951 89.92C65.2582 89.88 65.1844 89.88 65.0369 89.88V89.76H65.959V89.88C65.7746 89.92 65.627 90.04 65.5533 90.28L64.5943 93H64.4836L63.7459 91L62.8975 93H62.7869L61.8648 90.36C61.791 90.2 61.7541 90.08 61.6803 90.04C61.6066 90 61.5328 89.92 61.3852 89.92V89.72H61.3484ZM60.2787 92.2V91C59.9467 91.12 59.7623 91.24 59.6516 91.28C59.4672 91.4 59.3566 91.48 59.2828 91.6C59.209 91.72 59.1721 91.84 59.1721 91.96C59.1721 92.12 59.209 92.28 59.3197 92.36C59.3934 92.48 59.5041 92.52 59.6516 92.52C59.7992 92.52 60.0205 92.4 60.2787 92.2ZM60.2787 92.4C59.9836 92.64 59.7992 92.8 59.7254 92.84C59.6148 92.88 59.5041 92.92 59.3566 92.92C59.1721 92.92 58.9877 92.84 58.877 92.68C58.7295 92.52 58.6926 92.32 58.6926 92.08C58.6926 91.92 58.7295 91.8 58.8033 91.68C58.877 91.52 59.0246 91.36 59.2459 91.24C59.4672 91.12 59.7992 90.92 60.3156 90.76V90.64C60.3156 90.32 60.2787 90.12 60.168 90C60.0943 89.88 59.9467 89.84 59.7623 89.84C59.6148 89.84 59.541 89.88 59.4303 89.96C59.3566 90.04 59.3197 90.12 59.3197 90.24V90.44C59.3197 90.56 59.2828 90.64 59.2459 90.68C59.209 90.72 59.1352 90.76 59.0615 90.76C58.9877 90.76 58.9139 90.72 58.877 90.68C58.8402 90.64 58.8033 90.52 58.8033 90.44C58.8033 90.24 58.9139 90.08 59.0984 89.88C59.2828 89.72 59.541 89.64 59.8729 89.64C60.1311 89.64 60.3525 89.68 60.5 89.8C60.6107 89.88 60.7213 90 60.7582 90.12C60.7951 90.2 60.832 90.4 60.832 90.72V91.8C60.832 92.08 60.832 92.28 60.832 92.36C60.832 92.44 60.8689 92.48 60.8689 92.48C60.9057 92.52 60.9057 92.52 60.9426 92.52C60.9795 92.52 61.0164 92.52 61.0164 92.48C61.0533 92.44 61.1639 92.36 61.2746 92.24V92.44C61.0533 92.8 60.7951 92.96 60.6107 92.96C60.5 92.96 60.4262 92.92 60.3525 92.84C60.3156 92.72 60.2787 92.6 60.2787 92.4ZM58.2131 91.6L58.3238 91.64L57.9549 92.88H54.6352V92.76H54.7828C54.9672 92.76 55.0779 92.68 55.1885 92.56C55.2254 92.48 55.2623 92.32 55.2623 92.04V89.04C55.2623 88.76 55.2254 88.56 55.1885 88.48C55.1148 88.36 54.9672 88.32 54.8197 88.32H54.6721V88.2H56.6271V88.32C56.4057 88.32 56.2582 88.32 56.1475 88.4C56.0738 88.44 56 88.52 55.9631 88.56C55.9262 88.64 55.9262 88.8 55.9262 89.08V92C55.9262 92.2 55.9262 92.32 55.9631 92.4C56 92.44 56.0369 92.48 56.0738 92.52C56.1107 92.56 56.2951 92.56 56.5533 92.56H56.8484C57.1803 92.56 57.4016 92.52 57.5492 92.48C57.6967 92.44 57.8074 92.32 57.918 92.2C57.9918 92.08 58.1025 91.88 58.2131 91.6ZM52.3115 88V92.16C52.3115 92.36 52.3115 92.48 52.3484 92.56C52.3852 92.64 52.4221 92.68 52.459 92.72C52.4959 92.76 52.6066 92.76 52.7541 92.76V92.88H51.3525V92.76C51.5 92.76 51.5738 92.76 51.6107 92.72C51.6475 92.68 51.6844 92.64 51.7213 92.56C51.7582 92.48 51.7582 92.36 51.7582 92.16V89.32C51.7582 88.96 51.7582 88.76 51.7213 88.68C51.7213 88.6 51.6844 88.56 51.6475 88.52C51.6107 88.48 51.5738 88.48 51.5369 88.48C51.5 88.48 51.4262 88.48 51.3156 88.52L51.2787 88.4L52.1271 88H52.3115ZM50.0615 92.2V91C49.7295 91.12 49.5451 91.24 49.4344 91.28C49.25 91.4 49.1393 91.48 49.0656 91.6C48.9918 91.72 48.9549 91.84 48.9549 91.96C48.9549 92.12 48.9918 92.28 49.1025 92.36C49.1762 92.48 49.2869 92.52 49.4344 92.52C49.582 92.52 49.8033 92.4 50.0615 92.2ZM50.0615 92.4C49.7664 92.64 49.582 92.8 49.5082 92.84C49.3975 92.88 49.2869 92.92 49.1393 92.92C48.9549 92.92 48.7705 92.84 48.6598 92.68C48.5123 92.52 48.4754 92.32 48.4754 92.08C48.4754 91.92 48.5123 91.8 48.5861 91.68C48.6598 91.52 48.8074 91.36 49.0287 91.24C49.25 91.12 49.582 90.92 50.0984 90.76V90.64C50.0984 90.32 50.0615 90.12 49.9508 90C49.877 89.88 49.7295 89.84 49.5451 89.84C49.3975 89.84 49.3238 89.88 49.2131 89.96C49.1393 90.04 49.1025 90.12 49.1025 90.24V90.44C49.1025 90.56 49.0656 90.64 49.0287 90.68C48.9918 90.72 48.918 90.76 48.8443 90.76C48.7705 90.76 48.6967 90.72 48.6598 90.68C48.6229 90.64 48.5861 90.52 48.5861 90.44C48.5861 90.24 48.6967 90.08 48.8811 89.88C49.0656 89.72 49.3238 89.64 49.6557 89.64C49.9139 89.64 50.1352 89.68 50.2828 89.8C50.3934 89.88 50.5041 90 50.541 90.12C50.5779 90.2 50.6148 90.4 50.6148 90.72V91.8C50.6148 92.08 50.6148 92.28 50.6148 92.36C50.6148 92.44 50.6516 92.48 50.6516 92.48C50.6885 92.52 50.6885 92.52 50.7254 92.52C50.7623 92.52 50.7992 92.52 50.7992 92.48C50.8361 92.44 50.9467 92.36 51.0574 92.24V92.44C50.8361 92.8 50.5779 92.96 50.3934 92.96C50.2828 92.96 50.209 92.92 50.1352 92.84C50.0984 92.72 50.0615 92.6 50.0615 92.4ZM46.041 90.28C46.373 89.84 46.7049 89.64 47 89.64C47.1475 89.64 47.2951 89.68 47.4057 89.76C47.5164 89.84 47.6271 90 47.6639 90.2C47.7008 90.32 47.7377 90.56 47.7377 90.84V92.2C47.7377 92.4 47.7377 92.52 47.7746 92.6C47.8115 92.64 47.8484 92.72 47.8852 92.72C47.9221 92.76 48.0328 92.76 48.1803 92.76V92.88H46.7418V92.76H46.8156C46.9631 92.76 47.0369 92.72 47.1107 92.68C47.1475 92.64 47.1844 92.56 47.2213 92.48C47.2213 92.44 47.2213 92.32 47.2213 92.16V90.88C47.2213 90.6 47.1844 90.4 47.1107 90.24C47.0369 90.12 46.9262 90.04 46.7787 90.04C46.5205 90.04 46.2992 90.2 46.041 90.48V92.16C46.041 92.36 46.041 92.52 46.0779 92.56C46.1148 92.64 46.1516 92.68 46.1885 92.72C46.2254 92.76 46.3361 92.76 46.5205 92.76V92.88H45.082V92.76H45.1557C45.3033 92.76 45.4139 92.72 45.4508 92.64C45.4877 92.56 45.5246 92.4 45.5246 92.16V91C45.5246 90.64 45.5246 90.4 45.4877 90.32C45.4877 90.24 45.4508 90.2 45.4139 90.16C45.377 90.12 45.3402 90.12 45.2664 90.12C45.1926 90.12 45.1189 90.12 45.0451 90.16L45.0082 90.04L45.8934 89.64H46.041V90.28ZM43.3115 89.88C43.2008 89.88 43.0902 89.92 42.9795 90C42.8689 90.08 42.7582 90.2 42.7213 90.36C42.6475 90.52 42.6107 90.76 42.6107 91.04C42.6107 91.48 42.6844 91.88 42.8689 92.2C43.0533 92.52 43.2746 92.68 43.5328 92.68C43.7541 92.68 43.9016 92.6 44.0492 92.4C44.1967 92.2 44.2336 91.92 44.2336 91.48C44.2336 90.92 44.123 90.48 43.9016 90.16C43.7172 89.96 43.5328 89.88 43.3115 89.88ZM43.3852 89.64C43.8279 89.64 44.1598 89.8 44.4549 90.2C44.6762 90.52 44.7869 90.88 44.7869 91.28C44.7869 91.56 44.7131 91.84 44.6025 92.12C44.4918 92.4 44.3074 92.64 44.0861 92.76C43.8648 92.92 43.6434 92.96 43.3484 92.96C42.9057 92.96 42.5738 92.76 42.3156 92.4C42.0943 92.08 41.9836 91.72 41.9836 91.32C41.9836 91.04 42.0574 90.76 42.168 90.48C42.3156 90.2 42.4631 90 42.6844 89.84C42.9426 89.72 43.1639 89.64 43.3852 89.64ZM41.1721 89.64V92.16C41.1721 92.36 41.1721 92.48 41.209 92.56C41.2459 92.64 41.2828 92.68 41.3197 92.72C41.3566 92.76 41.4672 92.76 41.6148 92.76V92.88H40.2131V92.76C40.3607 92.76 40.4344 92.76 40.5082 92.72C40.5451 92.68 40.582 92.64 40.6189 92.56C40.6557 92.48 40.6557 92.36 40.6557 92.16V90.96C40.6557 90.64 40.6557 90.4 40.6189 90.32C40.6189 90.24 40.582 90.2 40.5451 90.16C40.5082 90.12 40.4713 90.12 40.4344 90.12C40.3607 90.12 40.2869 90.12 40.2131 90.16L40.1762 90.04L41.0615 89.64H41.1721ZM40.9139 88C40.9877 88 41.0615 88.04 41.1352 88.12C41.209 88.2 41.2459 88.28 41.2459 88.36C41.2459 88.44 41.209 88.52 41.1352 88.6C41.0615 88.68 40.9877 88.72 40.9139 88.72C40.8402 88.72 40.7664 88.68 40.6926 88.6C40.6189 88.52 40.582 88.44 40.582 88.36C40.582 88.28 40.6189 88.2 40.6926 88.12C40.7664 88.04 40.8402 88 40.9139 88ZM39.2172 88.68V89.72H39.8811V89.96H39.2172V92C39.2172 92.2 39.2541 92.36 39.291 92.4C39.3279 92.48 39.4016 92.52 39.5123 92.52C39.5861 92.52 39.6598 92.48 39.6967 92.44C39.7705 92.4 39.8074 92.32 39.8443 92.24H39.9549C39.8811 92.48 39.7705 92.64 39.6598 92.76C39.5123 92.88 39.4016 92.92 39.2541 92.92C39.1434 92.92 39.0697 92.88 38.959 92.84C38.8484 92.8 38.8115 92.68 38.7377 92.6C38.7008 92.48 38.6639 92.32 38.6639 92.08V89.96H38.2213V89.84C38.332 89.8 38.4426 89.72 38.5902 89.6C38.7008 89.48 38.8115 89.32 38.9221 89.16C38.959 89.08 39.0328 88.92 39.1434 88.68H39.2172ZM37.1516 92.2V91C36.8197 91.12 36.6352 91.24 36.5246 91.28C36.3402 91.4 36.2295 91.48 36.1557 91.6C36.082 91.72 36.0451 91.84 36.0451 91.96C36.0451 92.12 36.082 92.28 36.1926 92.36C36.2664 92.48 36.377 92.52 36.5246 92.52C36.6721 92.52 36.8934 92.4 37.1516 92.2ZM37.1516 92.4C36.8566 92.64 36.6721 92.8 36.5984 92.84C36.4877 92.88 36.3771 92.92 36.2295 92.92C36.0451 92.92 35.8607 92.84 35.75 92.68C35.6025 92.52 35.5656 92.32 35.5656 92.08C35.5656 91.92 35.6025 91.8 35.6762 91.68C35.75 91.52 35.8975 91.36 36.1189 91.24C36.3402 91.12 36.6721 90.92 37.1885 90.76V90.64C37.1885 90.32 37.1516 90.12 37.041 90C36.9672 89.88 36.8197 89.84 36.6352 89.84C36.4877 89.84 36.4139 89.88 36.3033 89.96C36.2295 90.04 36.1926 90.12 36.1926 90.24V90.44C36.1926 90.56 36.1557 90.64 36.1189 90.68C36.082 90.72 36.0082 90.76 35.9344 90.76C35.8607 90.76 35.7869 90.72 35.75 90.68C35.7131 90.64 35.6762 90.52 35.6762 90.44C35.6762 90.24 35.7869 90.08 35.9713 89.88C36.1557 89.72 36.4139 89.64 36.7459 89.64C37.0041 89.64 37.2254 89.68 37.373 89.8C37.4836 89.88 37.5943 90 37.6311 90.12C37.668 90.2 37.7049 90.4 37.7049 90.72V91.8C37.7049 92.08 37.7049 92.28 37.7049 92.36C37.7049 92.44 37.7418 92.48 37.7418 92.48C37.7787 92.52 37.7787 92.52 37.8156 92.52C37.8525 92.52 37.8893 92.52 37.8893 92.48C37.9262 92.44 38.0369 92.36 38.1475 92.24V92.44C37.9262 92.8 37.668 92.96 37.4836 92.96C37.3729 92.96 37.2992 92.92 37.2254 92.84C37.1885 92.72 37.1516 92.6 37.1516 92.4ZM33.1311 90.28C33.4631 89.84 33.7951 89.64 34.0902 89.64C34.2377 89.64 34.3852 89.68 34.4959 89.76C34.6066 89.84 34.7172 90 34.7541 90.2C34.791 90.32 34.8279 90.56 34.8279 90.84V92.2C34.8279 92.4 34.8279 92.52 34.8648 92.6C34.9016 92.64 34.9385 92.72 34.9754 92.72C35.0123 92.76 35.123 92.76 35.2705 92.76V92.88H33.832V92.76H33.9057C34.0533 92.76 34.1271 92.72 34.2008 92.68C34.2377 92.64 34.2746 92.56 34.3115 92.48C34.3115 92.44 34.3115 92.32 34.3115 92.16V90.88C34.3115 90.6 34.2746 90.4 34.2008 90.24C34.1271 90.12 34.0164 90.04 33.8689 90.04C33.6107 90.04 33.3893 90.2 33.1311 90.48V92.16C33.1311 92.36 33.1311 92.52 33.168 92.56C33.2049 92.64 33.2418 92.68 33.2787 92.72C33.3156 92.76 33.4262 92.76 33.6107 92.76V92.88H32.1721V92.76H32.2459C32.3934 92.76 32.5041 92.72 32.541 92.64C32.5779 92.56 32.6148 92.4 32.6148 92.16V91C32.6148 90.64 32.6148 90.4 32.5779 90.32C32.5779 90.24 32.541 90.2 32.5041 90.16C32.4672 90.12 32.4303 90.12 32.3566 90.12C32.2828 90.12 32.209 90.12 32.1352 90.16L32.0984 90.04L32.9836 89.64H33.1311V90.28ZM30.9918 89.64V90.36C31.25 89.88 31.4713 89.64 31.7295 89.64C31.8402 89.64 31.9508 89.68 32.0246 89.76C32.0984 89.84 32.1352 89.92 32.1352 90.04C32.1352 90.12 32.0984 90.2 32.0615 90.28C32.0246 90.36 31.9508 90.36 31.877 90.36C31.8033 90.36 31.7295 90.32 31.6189 90.24C31.5451 90.16 31.4713 90.12 31.4344 90.12C31.3975 90.12 31.3607 90.16 31.3238 90.2C31.2131 90.28 31.1393 90.44 31.0287 90.68V92.16C31.0287 92.32 31.0656 92.48 31.1025 92.56C31.1393 92.64 31.1762 92.68 31.25 92.72C31.3238 92.76 31.4344 92.8 31.5451 92.8V92.92H30.0697V92.8C30.2172 92.8 30.3279 92.76 30.4016 92.72C30.4385 92.68 30.4754 92.64 30.5123 92.56C30.5123 92.52 30.5123 92.4 30.5123 92.24V91.04C30.5123 90.68 30.5123 90.44 30.4754 90.4C30.4754 90.32 30.4385 90.28 30.4016 90.24C30.3648 90.2 30.3279 90.2 30.2541 90.2C30.1803 90.2 30.1066 90.2 30.0328 90.24L29.9959 90.12L30.8811 89.72H30.9918V89.64ZM27.7459 90.72H29.1107C29.1107 90.52 29.0738 90.36 29.0369 90.28C29 90.16 28.8893 90.04 28.8156 89.96C28.7049 89.88 28.5943 89.84 28.4836 89.84C28.2992 89.84 28.1516 89.92 28.0041 90.08C27.8566 90.24 27.7828 90.44 27.7459 90.72ZM27.7459 90.92C27.7459 91.4 27.8566 91.76 28.041 92C28.2623 92.28 28.4836 92.4 28.7787 92.4C28.9631 92.4 29.1475 92.36 29.2582 92.24C29.4057 92.12 29.5164 91.92 29.6271 91.64L29.7377 91.72C29.7008 92.04 29.5533 92.32 29.3689 92.56C29.1475 92.8 28.8893 92.96 28.5574 92.96C28.2254 92.96 27.9303 92.8 27.6721 92.52C27.4139 92.24 27.3033 91.84 27.3033 91.32C27.3033 90.8 27.4139 90.36 27.6721 90.08C27.9303 89.76 28.2254 89.64 28.6311 89.64C28.9631 89.64 29.2213 89.76 29.4426 90C29.6639 90.24 29.7377 90.56 29.7377 90.92H27.7459ZM26.3074 88.68V89.72H26.9713V89.96H26.3074V92C26.3074 92.2 26.3443 92.36 26.3811 92.4C26.418 92.48 26.4918 92.52 26.6025 92.52C26.6762 92.52 26.75 92.48 26.7869 92.44C26.8607 92.4 26.8975 92.32 26.9344 92.24H27.0451C26.9713 92.48 26.8607 92.64 26.75 92.76C26.6025 92.88 26.4918 92.92 26.3443 92.92C26.2336 92.92 26.1598 92.88 26.0492 92.84C25.9385 92.8 25.9016 92.68 25.8279 92.6C25.791 92.48 25.7541 92.32 25.7541 92.08V89.96H25.3115V89.84C25.4221 89.8 25.5328 89.72 25.6803 89.6C25.791 89.48 25.9016 89.32 26.0123 89.16C26.0492 89.08 26.123 88.92 26.2336 88.68H26.3074ZM23.0984 90.28C23.4303 89.84 23.7623 89.64 24.0574 89.64C24.2049 89.64 24.3525 89.68 24.4631 89.76C24.5738 89.84 24.6844 90 24.7213 90.2C24.7582 90.32 24.7951 90.56 24.7951 90.84V92.2C24.7951 92.4 24.7951 92.52 24.832 92.6C24.8689 92.64 24.9057 92.72 24.9426 92.72C24.9795 92.76 25.0902 92.76 25.2377 92.76V92.88H23.7992V92.76H23.873C24.0205 92.76 24.0943 92.72 24.168 92.68C24.2049 92.64 24.2418 92.56 24.2787 92.48C24.2787 92.44 24.2787 92.32 24.2787 92.16V90.88C24.2787 90.6 24.2418 90.4 24.168 90.24C24.0943 90.12 23.9836 90.04 23.8361 90.04C23.5779 90.04 23.3566 90.2 23.0984 90.48V92.16C23.0984 92.36 23.0984 92.52 23.1352 92.56C23.1721 92.64 23.209 92.68 23.2459 92.72C23.2828 92.76 23.3934 92.76 23.5779 92.76V92.88H22.1393V92.76H22.2131C22.3607 92.76 22.4713 92.72 22.5082 92.64C22.5451 92.56 22.582 92.4 22.582 92.16V91C22.582 90.64 22.582 90.4 22.5451 90.32C22.5451 90.24 22.5082 90.2 22.4713 90.16C22.4344 90.12 22.3975 90.12 22.3238 90.12C22.25 90.12 22.1762 90.12 22.1025 90.16L22.0656 90.04L22.9508 89.64H23.0984V90.28ZM21.8811 92.72V92.84H20.0369V92.72H20.1844C20.3689 92.72 20.4795 92.68 20.5533 92.56C20.5902 92.48 20.627 92.32 20.627 92.04V89.04C20.627 88.8 20.6271 88.64 20.5902 88.56C20.5533 88.52 20.5164 88.44 20.4426 88.4C20.332 88.36 20.2582 88.32 20.1475 88.32H20V88.2H21.8443V88.32H21.7336C21.5492 88.32 21.4385 88.36 21.3648 88.48C21.3279 88.56 21.291 88.72 21.291 89V92C21.291 92.24 21.291 92.4 21.3279 92.48C21.3648 92.52 21.4016 92.6 21.4754 92.64C21.5492 92.68 21.6598 92.72 21.7705 92.72H21.8811Z" fill="#161A7C"/>
</g>
<g filter="url(#filter3_d_152_292)">
<path d="M82.8889 96.5144H84.2593V96.6294H84.1852C84.0741 96.6294 84.037 96.6677 83.963 96.7061C83.9259 96.7444 83.8889 96.8211 83.8889 96.8594C83.8889 96.9361 83.9259 97.0511 84 97.2045L84.7037 98.738L85.3333 97.0895C85.3704 97.0128 85.3704 96.8978 85.3704 96.8211C85.3704 96.7827 85.3704 96.7444 85.3333 96.7444C85.3333 96.7061 85.2963 96.7061 85.2593 96.6677C85.2222 96.6677 85.1482 96.6294 85.0741 96.6294V96.5144H86V96.6294C85.9259 96.6294 85.8519 96.6677 85.8148 96.6677C85.7778 96.7061 85.7407 96.7444 85.6667 96.8211C85.6296 96.8594 85.6296 96.9361 85.5556 97.0895L84.3704 100.08C84.2593 100.387 84.1111 100.578 83.9259 100.732C83.7407 100.885 83.5556 100.962 83.4074 100.962C83.2963 100.962 83.1852 100.923 83.1111 100.847C83.037 100.77 83 100.693 83 100.578C83 100.502 83.037 100.425 83.0741 100.348C83.1482 100.31 83.2222 100.272 83.2963 100.272C83.3704 100.272 83.4444 100.31 83.5926 100.348C83.6667 100.387 83.7407 100.387 83.7407 100.387C83.8148 100.387 83.8889 100.348 83.963 100.272C84.037 100.195 84.1111 100.08 84.1852 99.8882L84.3704 99.3514L83.3333 97.0895C83.2963 97.0128 83.2593 96.9361 83.1852 96.8211C83.1482 96.7444 83.0741 96.7061 83.037 96.6677C83 96.6294 82.9259 96.5911 82.8148 96.5911V96.5144H82.8889ZM80.6667 97.0511C81 96.6294 81.3333 96.4377 81.6296 96.4377C81.7778 96.4377 81.9259 96.476 82.037 96.5527C82.1482 96.6294 82.2593 96.7827 82.2963 96.9744C82.3333 97.0895 82.3704 97.3195 82.3704 97.5879V98.8914C82.3704 99.0831 82.3704 99.1981 82.4074 99.2748C82.4444 99.3131 82.4815 99.3898 82.5185 99.3898C82.5556 99.4281 82.6667 99.4281 82.8148 99.4281V99.5431H81.3704V99.4281H81.4444C81.5926 99.4281 81.6667 99.3898 81.7407 99.3514C81.7778 99.3131 81.8148 99.2364 81.8519 99.1597C81.8519 99.1214 81.8519 99.0064 81.8519 98.853V97.6262C81.8519 97.3578 81.8148 97.1661 81.7407 97.0128C81.6667 96.8978 81.5556 96.8211 81.4074 96.8211C81.1482 96.8211 80.9259 96.9744 80.6667 97.2428V98.853C80.6667 99.0447 80.6667 99.1981 80.7037 99.2364C80.7407 99.3131 80.7778 99.3514 80.8148 99.3898C80.8519 99.4281 80.963 99.4281 81.1482 99.4281V99.5431H79.7037V99.4281H79.7778C79.9259 99.4281 80.037 99.3898 80.0741 99.3131C80.1111 99.2364 80.1481 99.0831 80.1481 98.853V97.7412C80.1481 97.3962 80.1482 97.1661 80.1111 97.0895C80.1111 97.0128 80.0741 96.9744 80.037 96.9361C80 96.8978 79.963 96.8978 79.8889 96.8978C79.8148 96.8978 79.7407 96.8978 79.6667 96.9361L79.6296 96.8211L80.5185 96.4377H80.6667V97.0511ZM78.5926 98.8914V97.7412C78.2593 97.8562 78.0741 97.9712 77.963 98.0096C77.7778 98.1246 77.6667 98.2013 77.5926 98.3163C77.5185 98.4313 77.4815 98.5463 77.4815 98.6613C77.4815 98.8147 77.5185 98.9681 77.6296 99.0447C77.7037 99.1597 77.8148 99.1981 77.963 99.1981C78.1111 99.1981 78.3333 99.0831 78.5926 98.8914ZM78.5926 99.0831C78.2963 99.3131 78.1111 99.4665 78.037 99.5048C77.9259 99.5431 77.8148 99.5815 77.6667 99.5815C77.4815 99.5815 77.2963 99.5048 77.1852 99.3514C77.037 99.1981 77 99.0064 77 98.7764C77 98.623 77.037 98.508 77.1111 98.393C77.1852 98.2396 77.3333 98.0863 77.5556 97.9712C77.7778 97.8562 78.1111 97.6645 78.6296 97.5112V97.3962C78.6296 97.0895 78.5926 96.8978 78.4815 96.7827C78.4074 96.6677 78.2593 96.6294 78.0741 96.6294C77.9259 96.6294 77.8519 96.6677 77.7407 96.7444C77.6667 96.8211 77.6296 96.8978 77.6296 97.0128V97.2045C77.6296 97.3195 77.5926 97.3962 77.5556 97.4345C77.5185 97.4728 77.4444 97.5112 77.3704 97.5112C77.2963 97.5112 77.2222 97.4728 77.1852 97.4345C77.1481 97.3962 77.1111 97.2812 77.1111 97.2045C77.1111 97.0128 77.2222 96.8594 77.4074 96.6677C77.5926 96.5144 77.8519 96.4377 78.1852 96.4377C78.4445 96.4377 78.6667 96.476 78.8148 96.5911C78.9259 96.6677 79.037 96.7827 79.0741 96.8978C79.1111 96.9744 79.1482 97.1661 79.1482 97.4728V98.508C79.1482 98.7764 79.1482 98.9681 79.1482 99.0447C79.1482 99.1214 79.1852 99.1597 79.1852 99.1597C79.2222 99.1981 79.2222 99.1981 79.2593 99.1981C79.2963 99.1981 79.3333 99.1981 79.3333 99.1597C79.3704 99.1214 79.4815 99.0447 79.5926 98.9297V99.1214C79.3704 99.4665 79.1111 99.6198 78.9259 99.6198C78.8148 99.6198 78.7407 99.5815 78.6667 99.5048C78.6296 99.3898 78.5926 99.2748 78.5926 99.0831ZM74.5185 97.3195V98.4313C74.5185 98.6613 74.5185 98.853 74.5556 98.9297C74.5926 99.0447 74.6667 99.1597 74.7778 99.2748C74.8889 99.3898 75.037 99.4281 75.2222 99.4281C75.4445 99.4281 75.5926 99.3514 75.7407 99.1597C75.9259 98.9297 76 98.623 76 98.2013C76 97.7412 75.8889 97.3962 75.7037 97.1278C75.5556 96.9744 75.4074 96.8594 75.2222 96.8594C75.1111 96.8594 75.037 96.8978 74.9259 96.9361C74.8148 97.0128 74.6667 97.1278 74.5185 97.3195ZM73.4815 96.8211L74.3704 96.4377H74.4815V97.1278C74.6296 96.8594 74.7778 96.6677 74.9259 96.5911C75.0741 96.476 75.2222 96.4377 75.4074 96.4377C75.7037 96.4377 75.9259 96.5527 76.1482 96.7827C76.3704 97.0895 76.5185 97.4345 76.5185 97.8946C76.5185 98.4313 76.3704 98.853 76.0741 99.1981C75.8519 99.4665 75.5556 99.6198 75.1852 99.6198C75.037 99.6198 74.8889 99.5815 74.7778 99.5431C74.7037 99.5048 74.5926 99.4281 74.4815 99.3514V100.272C74.4815 100.463 74.4815 100.617 74.5185 100.655C74.5556 100.693 74.5926 100.77 74.6296 100.808C74.7037 100.847 74.8148 100.847 74.963 100.847V100.962H73.4445V100.847H73.5185C73.6296 100.847 73.7407 100.808 73.8148 100.77C73.8519 100.732 73.8889 100.693 73.9259 100.655C73.963 100.617 73.963 100.463 73.963 100.233V97.3962C73.963 97.2045 73.963 97.0895 73.9259 97.0128C73.9259 96.9744 73.8889 96.9361 73.8519 96.8978C73.8148 96.8594 73.7778 96.8594 73.7037 96.8594C73.6667 96.8594 73.5926 96.8594 73.5185 96.8978L73.4815 96.8211ZM69.5185 97.0895C69.7407 96.8594 69.8519 96.7444 69.8889 96.7061C70 96.6294 70.0741 96.5527 70.1852 96.5144C70.2963 96.476 70.4074 96.4377 70.5185 96.4377C70.7037 96.4377 70.8519 96.476 71 96.5911C71.1482 96.7061 71.2222 96.8594 71.2593 97.0511C71.4815 96.7828 71.6667 96.6294 71.8148 96.5144C71.963 96.4377 72.1111 96.3994 72.2963 96.3994C72.4444 96.3994 72.5926 96.4377 72.7037 96.5144C72.8148 96.5911 72.9259 96.7444 73 96.9361C73.037 97.0511 73.0741 97.2428 73.0741 97.5495V98.853C73.0741 99.0447 73.0741 99.1597 73.1111 99.2364C73.1481 99.2748 73.1852 99.3131 73.2222 99.3514C73.2963 99.3898 73.3704 99.3898 73.4815 99.3898V99.5048H72.0741V99.3898H72.1482C72.2593 99.3898 72.3704 99.3514 72.4445 99.3131C72.4815 99.2748 72.5185 99.2364 72.5556 99.1597C72.5556 99.1214 72.5556 99.0064 72.5556 98.853V97.5495C72.5556 97.3195 72.5185 97.1278 72.4815 97.0128C72.4074 96.8594 72.2593 96.8211 72.0741 96.8211C71.963 96.8211 71.8519 96.8594 71.7407 96.8978C71.6296 96.9361 71.4815 97.0511 71.3333 97.2045V97.2428V97.3962V98.8147C71.3333 99.0064 71.3333 99.1597 71.3704 99.1981C71.4074 99.2364 71.4444 99.2748 71.4815 99.3131C71.5556 99.3514 71.6296 99.3514 71.7778 99.3514V99.4665H70.3333V99.3514C70.4815 99.3514 70.5926 99.3514 70.6667 99.2748C70.7407 99.2364 70.7778 99.1597 70.7778 99.0831C70.7778 99.0447 70.7778 98.9297 70.7778 98.7764V97.4728C70.7778 97.2428 70.7407 97.0511 70.6667 96.9361C70.5556 96.7827 70.4445 96.7061 70.2963 96.7061C70.1852 96.7061 70.0741 96.7444 69.963 96.8211C69.7778 96.9361 69.6667 97.0128 69.5556 97.1661V98.7764C69.5556 98.9681 69.5556 99.0831 69.5926 99.1597C69.6296 99.2364 69.6667 99.2748 69.7037 99.2748C69.7407 99.3131 69.8519 99.3131 70 99.3131V99.4281H68.5556V99.3131C68.7037 99.3131 68.7778 99.3131 68.8519 99.2748C68.8889 99.2364 68.963 99.1981 68.963 99.1214C69 99.0447 69 98.9297 69 98.738V97.5879C69 97.2428 69 97.0511 68.963 96.9361C68.963 96.8594 68.9259 96.8211 68.8889 96.7827C68.8519 96.7444 68.8148 96.7444 68.7778 96.7444C68.7037 96.7444 68.6296 96.7444 68.5556 96.7827L68.5185 96.6677L69.4074 96.2843H69.5556V97.0895H69.5185ZM66.7407 96.6294C66.6296 96.6294 66.5185 96.6677 66.4074 96.7444C66.2963 96.8211 66.1852 96.9361 66.1482 97.0895C66.0741 97.2428 66.037 97.4728 66.037 97.7412C66.037 98.1629 66.1111 98.5463 66.2963 98.853C66.4815 99.1597 66.7037 99.3131 66.963 99.3131C67.1852 99.3131 67.3333 99.2364 67.4815 99.0447C67.6296 98.853 67.6667 98.5847 67.6667 98.1629C67.6667 97.6262 67.5556 97.2045 67.3333 96.8978C67.1852 96.7444 66.963 96.6294 66.7407 96.6294ZM66.8519 96.4377C67.2963 96.4377 67.6296 96.5911 67.9259 96.9744C68.1481 97.2811 68.2593 97.6262 68.2593 98.0096C68.2593 98.278 68.1852 98.5463 68.0741 98.8147C67.963 99.0831 67.7778 99.3131 67.5556 99.4281C67.3333 99.5815 67.1111 99.6198 66.8148 99.6198C66.3704 99.6198 66.037 99.4281 65.7778 99.0831C65.5556 98.7764 65.4444 98.4313 65.4444 98.0479C65.4444 97.7796 65.5185 97.5112 65.6296 97.2428C65.7778 96.9744 65.9259 96.7827 66.1482 96.6294C66.3704 96.5144 66.5926 96.4377 66.8519 96.4377ZM64.7778 94.9808L64.8889 96.476H64.7778C64.6296 96.016 64.4444 95.7093 64.2222 95.5176C63.963 95.3259 63.7037 95.2109 63.3333 95.2109C63.037 95.2109 62.7778 95.2875 62.5556 95.4409C62.3333 95.5942 62.1481 95.8243 62 96.1693C61.8519 96.5144 61.8148 96.8978 61.8148 97.3962C61.8148 97.8179 61.8889 98.1629 62 98.4313C62.1111 98.738 62.2963 98.9681 62.5556 99.1214C62.8148 99.2748 63.0741 99.3514 63.4074 99.3514C63.7037 99.3514 63.9259 99.2748 64.1482 99.1597C64.3704 99.0447 64.5926 98.7764 64.8519 98.4313L64.963 98.508C64.7407 98.8914 64.4815 99.1981 64.2222 99.3898C63.9259 99.5815 63.5926 99.6581 63.1852 99.6581C62.4815 99.6581 61.9259 99.3898 61.5185 98.853C61.2222 98.4313 61.0741 97.9712 61.0741 97.4345C61.0741 96.9744 61.1852 96.5911 61.3704 96.2077C61.5556 95.8243 61.8148 95.5559 62.1482 95.3259C62.4815 95.1342 62.8519 95.0192 63.2593 95.0192C63.5556 95.0192 63.8889 95.0958 64.1852 95.2492C64.2593 95.2875 64.3333 95.3259 64.3704 95.3259C64.4444 95.3259 64.4815 95.2875 64.5185 95.2492C64.5556 95.1725 64.6296 95.0958 64.6296 95.0192H64.7778V94.9808ZM56.963 99.5431C56.8519 99.6582 56.7778 99.7732 56.7407 99.8498C56.7037 99.9649 56.6667 100.042 56.6667 100.118C56.6667 100.233 56.7407 100.31 56.8519 100.387C57.0741 100.54 57.3704 100.578 57.7778 100.578C58.1482 100.578 58.4444 100.502 58.6296 100.387C58.8148 100.233 58.8889 100.118 58.8889 99.9265C58.8889 99.8115 58.8519 99.7348 58.7407 99.6965C58.6296 99.6581 58.4074 99.6198 58.0741 99.6198C57.5926 99.5815 57.2222 99.5815 56.963 99.5431ZM57.5556 96.5911C57.4074 96.5911 57.2593 96.6677 57.1482 96.7827C57.037 96.8978 57 97.0895 57 97.3578C57 97.7029 57.0741 97.9712 57.2222 98.1629C57.3333 98.3163 57.4815 98.393 57.6296 98.393C57.7778 98.393 57.9259 98.3163 58.037 98.2013C58.1481 98.0863 58.1852 97.8946 58.1852 97.6262C58.1852 97.2812 58.1111 97.0128 57.963 96.8211C57.8519 96.6677 57.7037 96.5911 57.5556 96.5911ZM57 98.4313C56.8148 98.3546 56.7037 98.2013 56.5926 98.0479C56.4815 97.8946 56.4444 97.7029 56.4444 97.5112C56.4444 97.2045 56.5556 96.9744 56.7778 96.7444C57 96.5144 57.2593 96.4377 57.5926 96.4377C57.8519 96.4377 58.1111 96.5144 58.2963 96.6294H58.9259C59 96.6294 59.0741 96.6294 59.0741 96.6294C59.0741 96.6294 59.1111 96.6294 59.1111 96.6677C59.1111 96.7061 59.1481 96.7061 59.1481 96.7827C59.1481 96.8211 59.1481 96.8978 59.1481 96.8978C59.1481 96.8978 59.1482 96.8978 59.1111 96.9361C59.1111 96.9361 59.037 96.9361 58.963 96.9361H58.5926C58.7037 97.0895 58.7778 97.2811 58.7778 97.5495C58.7778 97.8179 58.6667 98.0863 58.4815 98.278C58.2593 98.4697 58 98.5847 57.6667 98.5847C57.5185 98.5847 57.3704 98.5463 57.2222 98.508C57.1482 98.5847 57.0741 98.6613 57.037 98.738C57 98.8147 57 98.853 57 98.8914C57 98.9297 57 98.9681 57.037 99.0064C57.0741 99.0447 57.1482 99.0831 57.2593 99.0831C57.3333 99.0831 57.4815 99.0831 57.7037 99.1214C58.1482 99.1214 58.4074 99.1597 58.5556 99.1597C58.7407 99.1981 58.9259 99.2748 59.037 99.3898C59.1481 99.5048 59.2222 99.6581 59.2222 99.8498C59.2222 100.08 59.1111 100.31 58.8889 100.54C58.5556 100.847 58.1482 101 57.5926 101C57.1852 101 56.8519 100.923 56.5556 100.732C56.4074 100.617 56.3333 100.502 56.3333 100.387C56.3333 100.348 56.3333 100.272 56.3704 100.233C56.4074 100.157 56.4815 100.042 56.5926 99.8882C56.5926 99.8498 56.7037 99.7348 56.9259 99.5431C56.8148 99.4665 56.7407 99.4281 56.7037 99.3514C56.6667 99.3131 56.6296 99.2364 56.6296 99.1597C56.6296 99.0831 56.6667 99.0064 56.7037 98.8914C56.6296 98.7764 56.7778 98.623 57 98.4313ZM53.8148 97.0511C54.1482 96.6294 54.4815 96.4377 54.7778 96.4377C54.9259 96.4377 55.0741 96.476 55.1852 96.5527C55.2963 96.6294 55.4074 96.7827 55.4444 96.9744C55.4815 97.0895 55.5185 97.3195 55.5185 97.5879V98.8914C55.5185 99.0831 55.5185 99.1981 55.5556 99.2748C55.5926 99.3131 55.6296 99.3898 55.6667 99.3898C55.7037 99.4281 55.8148 99.4281 55.963 99.4281V99.5431H54.5185V99.4281H54.5926C54.7407 99.4281 54.8148 99.3898 54.8889 99.3514C54.9259 99.3131 54.963 99.2364 55 99.1597C55 99.1214 55 99.0064 55 98.853V97.6262C55 97.3578 54.963 97.1661 54.8889 97.0128C54.8148 96.8978 54.7037 96.8211 54.5556 96.8211C54.2963 96.8211 54.0741 96.9744 53.8148 97.2428V98.853C53.8148 99.0447 53.8148 99.1981 53.8519 99.2364C53.8889 99.3131 53.9259 99.3514 53.963 99.3898C54 99.4281 54.1111 99.4281 54.2963 99.4281V99.5431H52.8519V99.4281H52.9259C53.0741 99.4281 53.1852 99.3898 53.2222 99.3131C53.2593 99.2364 53.2963 99.0831 53.2963 98.853V97.7412C53.2963 97.3962 53.2963 97.1661 53.2593 97.0895C53.2593 97.0128 53.2222 96.9744 53.1852 96.9361C53.1481 96.8978 53.1111 96.8978 53.037 96.8978C52.963 96.8978 52.8889 96.8978 52.8148 96.9361L52.7778 96.8211L53.6667 96.4377H53.8148V97.0511ZM52.1852 96.4377V98.853C52.1852 99.0447 52.1852 99.1597 52.2222 99.2364C52.2593 99.3131 52.2963 99.3514 52.3333 99.3898C52.3704 99.4281 52.4815 99.4281 52.6296 99.4281V99.5431H51.2222V99.4281C51.3704 99.4281 51.4444 99.4281 51.5185 99.3898C51.5556 99.3514 51.5926 99.3131 51.6296 99.2364C51.6667 99.1597 51.6667 99.0447 51.6667 98.853V97.7029C51.6667 97.3962 51.6667 97.1661 51.6296 97.0895C51.6296 97.0128 51.5926 96.9744 51.5556 96.9361C51.5185 96.8978 51.4815 96.8978 51.4444 96.8978C51.3704 96.8978 51.2963 96.8978 51.2222 96.9361L51.1852 96.8211L52.0741 96.4377H52.1852ZM51.9259 94.8658C52 94.8658 52.0741 94.9042 52.1482 94.9808C52.2222 95.0575 52.2593 95.1342 52.2593 95.2109C52.2593 95.2875 52.2222 95.3642 52.1482 95.4409C52.0741 95.5176 52 95.5559 51.9259 95.5559C51.8519 95.5559 51.7778 95.5176 51.7037 95.4409C51.6296 95.3642 51.5926 95.2875 51.5926 95.2109C51.5926 95.1342 51.6296 95.0575 51.7037 94.9808C51.7407 94.9042 51.8519 94.8658 51.9259 94.8658ZM50.2222 95.5176V96.5144H50.8889V96.7444H50.2222V98.6997C50.2222 98.8914 50.2593 99.0447 50.2963 99.0831C50.3333 99.1597 50.4074 99.1981 50.5185 99.1981C50.5926 99.1981 50.6667 99.1597 50.7037 99.1214C50.7778 99.0831 50.8148 99.0064 50.8519 98.9297H50.963C50.8889 99.1597 50.7778 99.3131 50.6667 99.4281C50.5185 99.5431 50.4074 99.5815 50.2593 99.5815C50.1481 99.5815 50.0741 99.5431 49.963 99.5048C49.8519 99.4665 49.8148 99.3514 49.7407 99.2748C49.7037 99.1597 49.6667 99.0064 49.6667 98.7764V96.7444H49.2593V96.6294C49.3704 96.5911 49.4815 96.5144 49.6296 96.3994C49.7407 96.2843 49.8519 96.131 49.963 95.9776C50 95.901 50.0741 95.7476 50.1852 95.5176H50.2222ZM48.5926 94.8658V98.853C48.5926 99.0447 48.5926 99.1597 48.6296 99.2364C48.6667 99.3131 48.7037 99.3514 48.7407 99.3898C48.7778 99.4281 48.8889 99.4281 49.037 99.4281V99.5431H47.6296V99.4281C47.7778 99.4281 47.8519 99.4281 47.8889 99.3898C47.9259 99.3514 47.963 99.3131 48 99.2364C48.037 99.1597 48.037 99.0447 48.037 98.853V96.131C48.037 95.7859 48.037 95.5943 48 95.5176C48 95.4409 47.963 95.4026 47.9259 95.3642C47.8889 95.3259 47.8519 95.3259 47.8148 95.3259C47.7778 95.3259 47.7037 95.3259 47.5926 95.3642L47.5556 95.2492L48.4074 94.8658H48.5926ZM46.8889 96.5144V98.3546C46.8889 98.6997 46.8889 98.8914 46.9259 98.9681C46.9259 99.0447 46.963 99.0831 47 99.1214C47.037 99.1597 47.0741 99.1597 47.1111 99.1597C47.1852 99.1597 47.2593 99.1597 47.3333 99.1214L47.3704 99.2364L46.5185 99.6198H46.3704V99.0064C46.1111 99.2748 45.9259 99.4665 45.8148 99.5431C45.6667 99.6198 45.5556 99.6581 45.4074 99.6581C45.2593 99.6581 45.1111 99.6198 45 99.5048C44.8889 99.3898 44.8148 99.2748 44.7407 99.1214C44.7037 98.9681 44.6667 98.738 44.6667 98.4697V97.1278C44.6667 96.9744 44.6667 96.8978 44.6296 96.8211C44.5926 96.7827 44.5556 96.7061 44.4815 96.7061C44.4074 96.6677 44.3333 96.6677 44.1481 96.6677V96.5527H45.1482V98.5847C45.1482 98.853 45.1852 99.0447 45.2963 99.1214C45.4074 99.1981 45.5185 99.2364 45.6296 99.2364C45.7037 99.2364 45.8148 99.1981 45.9259 99.1597C46.037 99.0831 46.1852 99.0064 46.3333 98.8147V97.1278C46.3333 96.9361 46.2963 96.8211 46.2593 96.7827C46.1852 96.7061 46.0741 96.7061 45.8889 96.6677V96.5527H46.8889V96.5144ZM43.6667 96.4377V97.4728H43.5556C43.4815 97.1661 43.3704 96.9361 43.2593 96.8211C43.1482 96.7061 42.963 96.6294 42.7778 96.6294C42.6296 96.6294 42.5185 96.6677 42.4074 96.7444C42.3333 96.8211 42.2593 96.8978 42.2593 97.0128C42.2593 97.1278 42.2963 97.2428 42.3704 97.3195C42.4444 97.3962 42.5556 97.5112 42.7778 97.5879L43.2222 97.8179C43.6667 98.0479 43.8519 98.3163 43.8519 98.6613C43.8519 98.9297 43.7407 99.1597 43.5556 99.3131C43.3704 99.4665 43.1482 99.5815 42.8889 99.5815C42.7037 99.5815 42.5185 99.5431 42.2963 99.4665C42.2222 99.4281 42.1852 99.4281 42.1111 99.4281C42.0741 99.4281 42.037 99.4665 42 99.5048H41.8889V98.4313H42C42.0741 98.738 42.1852 98.9681 42.3333 99.1214C42.4815 99.2748 42.7037 99.3514 42.8889 99.3514C43.037 99.3514 43.1482 99.3131 43.2593 99.2364C43.3333 99.1597 43.4074 99.0447 43.4074 98.9297C43.4074 98.7764 43.3704 98.6613 43.2593 98.5463C43.1482 98.4313 42.963 98.3163 42.6296 98.1629C42.3333 98.0096 42.1111 97.8562 42.037 97.7412C41.9259 97.6262 41.8889 97.4728 41.8889 97.2811C41.8889 97.0511 41.963 96.8211 42.1482 96.6677C42.2963 96.5144 42.5185 96.3994 42.7778 96.3994C42.8889 96.3994 43.037 96.4377 43.1852 96.476C43.2963 96.5144 43.3704 96.5144 43.4074 96.5144C43.4444 96.5144 43.4815 96.5144 43.4815 96.476C43.4815 96.476 43.5185 96.4377 43.5556 96.361H43.6667V96.4377ZM39.4074 97.0511C39.7407 96.6294 40.0741 96.4377 40.3704 96.4377C40.5185 96.4377 40.6667 96.476 40.7778 96.5527C40.8889 96.6294 41 96.7827 41.037 96.9744C41.0741 97.0895 41.1111 97.3195 41.1111 97.5879V98.8914C41.1111 99.0831 41.1111 99.1981 41.1481 99.2748C41.1852 99.3131 41.2222 99.3898 41.2593 99.3898C41.2963 99.4281 41.4074 99.4281 41.5556 99.4281V99.5431H40.1111V99.4281H40.1852C40.3333 99.4281 40.4074 99.3898 40.4815 99.3514C40.5185 99.3131 40.5556 99.2364 40.5926 99.1597C40.5926 99.1214 40.5926 99.0064 40.5926 98.853V97.6262C40.5926 97.3578 40.5556 97.1661 40.4815 97.0128C40.4074 96.8978 40.2963 96.8211 40.1482 96.8211C39.8889 96.8211 39.6667 96.9744 39.4074 97.2428V98.853C39.4074 99.0447 39.4074 99.1981 39.4444 99.2364C39.4815 99.3131 39.5185 99.3514 39.5556 99.3898C39.5926 99.4281 39.7037 99.4281 39.8889 99.4281V99.5431H38.4444V99.4281H38.5185C38.6667 99.4281 38.7778 99.3898 38.8148 99.3131C38.8519 99.2364 38.8889 99.0831 38.8889 98.853V97.7412C38.8889 97.3962 38.8889 97.1661 38.8519 97.0895C38.8519 97.0128 38.8148 96.9744 38.7778 96.9361C38.7407 96.8978 38.7037 96.8978 38.6296 96.8978C38.5556 96.8978 38.4815 96.8978 38.4074 96.9361L38.3704 96.8211L39.2593 96.4377H39.4074V97.0511ZM36.6667 96.6294C36.5556 96.6294 36.4444 96.6677 36.3333 96.7444C36.2222 96.8211 36.1111 96.9361 36.0741 97.0895C36 97.2428 35.963 97.4728 35.963 97.7412C35.963 98.1629 36.037 98.5463 36.2222 98.853C36.4074 99.1597 36.6296 99.3131 36.8889 99.3131C37.1111 99.3131 37.2593 99.2364 37.4074 99.0447C37.5556 98.853 37.5926 98.5847 37.5926 98.1629C37.5926 97.6262 37.4815 97.2045 37.2593 96.8978C37.0741 96.7444 36.8889 96.6294 36.6667 96.6294ZM36.7407 96.4377C37.1852 96.4377 37.5185 96.5911 37.8148 96.9744C38.037 97.2811 38.1481 97.6262 38.1481 98.0096C38.1481 98.278 38.0741 98.5463 37.963 98.8147C37.8519 99.0831 37.6667 99.3131 37.4444 99.4281C37.2222 99.5815 37 99.6198 36.7037 99.6198C36.2593 99.6198 35.9259 99.4281 35.6667 99.0831C35.4444 98.7764 35.3333 98.4313 35.3333 98.0479C35.3333 97.7796 35.4074 97.5112 35.5185 97.2428C35.6667 96.9744 35.8148 96.7827 36.037 96.6294C36.2963 96.5144 36.5185 96.4377 36.7407 96.4377ZM34.7037 94.9808L34.8148 96.476H34.7037C34.5556 96.016 34.3704 95.7093 34.1481 95.5176C33.8889 95.3259 33.6296 95.2109 33.2593 95.2109C32.963 95.2109 32.7037 95.2875 32.4815 95.4409C32.2593 95.5942 32.0741 95.8243 31.9259 96.1693C31.7778 96.5144 31.7407 96.8978 31.7407 97.3962C31.7407 97.8179 31.8148 98.1629 31.9259 98.4313C32.037 98.738 32.2222 98.9681 32.4815 99.1214C32.7407 99.2748 33 99.3514 33.3333 99.3514C33.6296 99.3514 33.8519 99.2748 34.0741 99.1597C34.2963 99.0447 34.5185 98.7764 34.7778 98.4313L34.8889 98.508C34.6667 98.8914 34.4074 99.1981 34.1481 99.3898C33.8519 99.5815 33.5185 99.6581 33.1111 99.6581C32.4074 99.6581 31.8519 99.3898 31.4444 98.853C31.1481 98.4313 31 97.9712 31 97.4345C31 96.9744 31.1111 96.5911 31.2963 96.2077C31.4815 95.8243 31.7407 95.5559 32.0741 95.3259C32.4074 95.1342 32.7778 95.0192 33.1852 95.0192C33.4815 95.0192 33.8148 95.0958 34.1111 95.2492C34.1852 95.2875 34.2593 95.3259 34.2963 95.3259C34.3704 95.3259 34.4074 95.2875 34.4444 95.2492C34.4815 95.1725 34.5556 95.0958 34.5556 95.0192H34.7037V94.9808ZM96.8148 89V90.0351H96.7037C96.6296 89.7284 96.5185 89.4984 96.4074 89.3834C96.2963 89.2684 96.1111 89.1917 95.9259 89.1917C95.7778 89.1917 95.6667 89.23 95.5556 89.3067C95.4815 89.3834 95.4074 89.4601 95.4074 89.5751C95.4074 89.6901 95.4444 89.8051 95.5185 89.8818C95.5926 89.9585 95.7037 90.0735 95.9259 90.1502L96.3704 90.3802C96.8148 90.6102 97 90.8786 97 91.2236C97 91.492 96.8889 91.722 96.7037 91.8754C96.5185 92.0288 96.2963 92.1438 96.037 92.1438C95.8519 92.1438 95.6667 92.1054 95.4445 92.0288C95.3704 91.9904 95.3333 91.9904 95.2593 91.9904C95.2222 91.9904 95.1852 92.0288 95.1481 92.0671H95.037V91.0703H95.1481C95.2222 91.377 95.3333 91.607 95.4815 91.7604C95.6296 91.9137 95.8519 91.9904 96.037 91.9904C96.1852 91.9904 96.2963 91.9521 96.4074 91.8754C96.4815 91.7987 96.5556 91.6837 96.5556 91.5687C96.5556 91.4153 96.5185 91.3003 96.4074 91.1853C96.2963 91.0703 96.1111 90.9553 95.7778 90.8019C95.4815 90.6486 95.2593 90.4952 95.1852 90.3802C95.0741 90.2652 95.037 90.1118 95.037 89.9201C95.037 89.6901 95.1111 89.4601 95.2963 89.3067C95.4445 89.1534 95.6667 89.0383 95.9259 89.0383C96.037 89.0383 96.1852 89.0767 96.3333 89.115C96.4445 89.1534 96.5185 89.1534 96.5556 89.1534C96.5926 89.1534 96.6296 89.1534 96.6296 89.115C96.6296 89.115 96.6667 89.0767 96.7037 89H96.8148ZM94.2963 89V90.0351H94.1852C94.1111 89.7284 94 89.4984 93.8889 89.3834C93.7778 89.2684 93.5926 89.1917 93.4074 89.1917C93.2593 89.1917 93.1482 89.23 93.037 89.3067C92.963 89.3834 92.8889 89.4601 92.8889 89.5751C92.8889 89.6901 92.9259 89.8051 93 89.8818C93.0741 89.9585 93.1852 90.0735 93.4074 90.1502L93.8519 90.3802C94.2963 90.6102 94.4815 90.8786 94.4815 91.2236C94.4815 91.492 94.3704 91.722 94.1852 91.8754C94 92.0288 93.7778 92.1438 93.5185 92.1438C93.3333 92.1438 93.1482 92.1054 92.9259 92.0288C92.8519 91.9904 92.8148 91.9904 92.7407 91.9904C92.7037 91.9904 92.6667 92.0288 92.6296 92.0671H92.5185V91.0703H92.6296C92.7037 91.377 92.8148 91.607 92.963 91.7604C93.1111 91.9137 93.3333 91.9904 93.5185 91.9904C93.6667 91.9904 93.7778 91.9521 93.8889 91.8754C93.963 91.7987 94.037 91.6837 94.037 91.5687C94.037 91.4153 94 91.3003 93.8889 91.1853C93.7778 91.0703 93.5926 90.9553 93.2593 90.8019C92.963 90.6486 92.7407 90.4952 92.6667 90.3802C92.5556 90.2652 92.5185 90.1118 92.5185 89.9201C92.5185 89.6901 92.5926 89.4601 92.7778 89.3067C92.9259 89.1534 93.1482 89.0383 93.4074 89.0383C93.5185 89.0383 93.6667 89.0767 93.8148 89.115C93.9259 89.1534 94 89.1534 94.037 89.1534C94.0741 89.1534 94.1111 89.1534 94.1111 89.115C94.1111 89.115 94.1482 89.0767 94.1852 89H94.2963Z" fill="#161A7C"/>
</g>
</g>
<defs>
<filter id="filter0_d_152_292" x="4" y="6" width="113" height="72" filterUnits="userSpaceOnUse" color-interpolation-filters="sRGB">
<feFlood flood-opacity="0" result="BackgroundImageFix"/>
<feColorMatrix in="SourceAlpha" type="matrix" values="0 0 0 0 0 0 0 0 0 0 0 0 0 0 0 0 0 0 127 0" result="hardAlpha"/>
<feOffset dx="2" dy="4"/>
<feGaussianBlur stdDeviation="2"/>
<feComposite in2="hardAlpha" operator="out"/>
<feColorMatrix type="matrix" values="0 0 0 0 0 0 0 0 0 0 0 0 0 0 0 0 0 0 0.25 0"/>
<feBlend mode="normal" in2="BackgroundImageFix" result="effect1_dropShadow_152_292"/>
<feBlend mode="normal" in="SourceGraphic" in2="effect1_dropShadow_152_292" result="shape"/>
</filter>
<filter id="filter1_d_152_292" x="20" y="75" width="82" height="14" filterUnits="userSpaceOnUse" color-interpolation-filters="sRGB">
<feFlood flood-opacity="0" result="BackgroundImageFix"/>
<feColorMatrix in="SourceAlpha" type="matrix" values="0 0 0 0 0 0 0 0 0 0 0 0 0 0 0 0 0 0 127 0" result="hardAlpha"/>
<feOffset dx="2" dy="2"/>
<feGaussianBlur stdDeviation="2"/>
<feComposite in2="hardAlpha" operator="out"/>
<feColorMatrix type="matrix" values="0 0 0 0 0 0 0 0 0 0 0 0 0 0 0 0 0 0 0.25 0"/>
<feBlend mode="normal" in2="BackgroundImageFix" result="effect1_dropShadow_152_292"/>
<feBlend mode="normal" in="SourceGraphic" in2="effect1_dropShadow_152_292" result="shape"/>
</filter>
<filter id="filter2_d_152_292" x="18" y="86" width="80" height="13" filterUnits="userSpaceOnUse" color-interpolation-filters="sRGB">
<feFlood flood-opacity="0" result="BackgroundImageFix"/>
<feColorMatrix in="SourceAlpha" type="matrix" values="0 0 0 0 0 0 0 0 0 0 0 0 0 0 0 0 0 0 127 0" result="hardAlpha"/>
<feOffset dx="2" dy="2"/>
<feGaussianBlur stdDeviation="2"/>
<feComposite in2="hardAlpha" operator="out"/>
<feColorMatrix type="matrix" values="0 0 0 0 0 0 0 0 0 0 0 0 0 0 0 0 0 0 0.25 0"/>
<feBlend mode="normal" in2="BackgroundImageFix" result="effect1_dropShadow_152_292"/>
<feBlend mode="normal" in="SourceGraphic" in2="effect1_dropShadow_152_292" result="shape"/>
</filter>
<filter id="filter3_d_152_292" x="29" y="87" width="74" height="20" filterUnits="userSpaceOnUse" color-interpolation-filters="sRGB">
<feFlood flood-opacity="0" result="BackgroundImageFix"/>
<feColorMatrix in="SourceAlpha" type="matrix" values="0 0 0 0 0 0 0 0 0 0 0 0 0 0 0 0 0 0 127 0" result="hardAlpha"/>
<feOffset dx="2" dy="2"/>
<feGaussianBlur stdDeviation="2"/>
<feComposite in2="hardAlpha" operator="out"/>
<feColorMatrix type="matrix" values="0 0 0 0 0 0 0 0 0 0 0 0 0 0 0 0 0 0 0.25 0"/>
<feBlend mode="normal" in2="BackgroundImageFix" result="effect1_dropShadow_152_292"/>
<feBlend mode="normal" in="SourceGraphic" in2="effect1_dropShadow_152_292" result="shape"/>
</filter>
<clipPath id="clip0_152_292">
<rect width="117" height="106" fill="white"/>
</clipPath>
</defs>
</svg>
